<mxfile host="65bd71144e" pages="4">
    <diagram id="ouE0Fg_7VYAYgYXivY0S" name="1_User Story">
        <mxGraphModel dx="1277" dy="573" grid="1" gridSize="10" guides="1" tooltips="1" connect="1" arrows="1" fold="1" page="1" pageScale="1" pageWidth="827" pageHeight="1169" math="0" shadow="0">
            <root>
                <mxCell id="0"/>
                <mxCell id="1" parent="0"/>
                <mxCell id="ZuNL9oyqCu-HNJ8LQn7s-1" value="" style="shape=note;whiteSpace=wrap;html=1;backgroundOutline=1;darkOpacity=0.05;fontSize=20;fillColor=#e1d5e7;strokeColor=#9673a6;" parent="1" vertex="1">
                    <mxGeometry x="109" y="110" width="610" height="670" as="geometry"/>
                </mxCell>
                <mxCell id="ZuNL9oyqCu-HNJ8LQn7s-2" value="" style="shape=note;whiteSpace=wrap;html=1;backgroundOutline=1;darkOpacity=0.05;fontSize=20;fillColor=#fff2cc;strokeColor=#d6b656;" parent="1" vertex="1">
                    <mxGeometry x="119" y="130" width="580" height="400" as="geometry"/>
                </mxCell>
                <mxCell id="ZuNL9oyqCu-HNJ8LQn7s-3" value="" style="shape=note;whiteSpace=wrap;html=1;backgroundOutline=1;darkOpacity=0.05;fontSize=20;fillColor=#d5e8d4;strokeColor=#82b366;" parent="1" vertex="1">
                    <mxGeometry x="139" y="150" width="232.2" height="290" as="geometry"/>
                </mxCell>
                <mxCell id="ZuNL9oyqCu-HNJ8LQn7s-4" value="Admin" style="shape=actor;whiteSpace=wrap;html=1;spacingTop=38;fillColor=#e1d5e7;strokeColor=#9673a6;" parent="1" vertex="1">
                    <mxGeometry x="379" y="790" width="70" height="95" as="geometry"/>
                </mxCell>
                <mxCell id="ZuNL9oyqCu-HNJ8LQn7s-5" value="E-Commerce Site &lt;span style=&quot;font-weight: 700&quot;&gt;Requirements&lt;/span&gt;" style="rounded=1;whiteSpace=wrap;html=1;fontSize=20;" parent="1" vertex="1">
                    <mxGeometry x="300" y="30" width="200" height="60" as="geometry"/>
                </mxCell>
                <mxCell id="ZuNL9oyqCu-HNJ8LQn7s-6" value="view info &lt;br&gt;about site" style="ellipse;shape=cloud;whiteSpace=wrap;html=1;" parent="1" vertex="1">
                    <mxGeometry x="142" y="150" width="120" height="80" as="geometry"/>
                </mxCell>
                <mxCell id="ZuNL9oyqCu-HNJ8LQn7s-7" value="Public" style="shape=actor;whiteSpace=wrap;html=1;spacingTop=38;fillColor=#d5e8d4;strokeColor=#82b366;" parent="1" vertex="1">
                    <mxGeometry x="19" y="285" width="70" height="95" as="geometry"/>
                </mxCell>
                <mxCell id="ZuNL9oyqCu-HNJ8LQn7s-8" value="User" style="shape=actor;whiteSpace=wrap;html=1;spacingTop=38;fillColor=#fff2cc;strokeColor=#d6b656;" parent="1" vertex="1">
                    <mxGeometry x="739" y="285" width="70" height="95" as="geometry"/>
                </mxCell>
                <mxCell id="ZuNL9oyqCu-HNJ8LQn7s-9" value="login" style="ellipse;shape=cloud;whiteSpace=wrap;html=1;spacingLeft=15;spacingRight=15;" parent="1" vertex="1">
                    <mxGeometry x="379" y="140" width="130" height="80" as="geometry"/>
                </mxCell>
                <mxCell id="ZuNL9oyqCu-HNJ8LQn7s-10" value="register" style="ellipse;shape=cloud;whiteSpace=wrap;html=1;" parent="1" vertex="1">
                    <mxGeometry x="241.2" y="350" width="130" height="80" as="geometry"/>
                </mxCell>
                <mxCell id="ZuNL9oyqCu-HNJ8LQn7s-11" value="browse products" style="ellipse;shape=cloud;whiteSpace=wrap;html=1;spacingLeft=20;spacingRight=20;" parent="1" vertex="1">
                    <mxGeometry x="239" y="200" width="130" height="80" as="geometry"/>
                </mxCell>
                <mxCell id="ZuNL9oyqCu-HNJ8LQn7s-12" value="view &amp;amp; update user profile, delete account" style="ellipse;shape=cloud;whiteSpace=wrap;html=1;spacingLeft=15;spacingRight=15;" parent="1" vertex="1">
                    <mxGeometry x="509" y="140" width="130" height="80" as="geometry"/>
                </mxCell>
                <mxCell id="ZuNL9oyqCu-HNJ8LQn7s-13" value="view product details &lt;br&gt;including&lt;br&gt;reviews &amp;amp; questions" style="ellipse;shape=cloud;whiteSpace=wrap;html=1;spacingLeft=15;spacingRight=15;" parent="1" vertex="1">
                    <mxGeometry x="129" y="260" width="174" height="110" as="geometry"/>
                </mxCell>
                <mxCell id="ZuNL9oyqCu-HNJ8LQn7s-14" value="post questions about products" style="ellipse;shape=cloud;whiteSpace=wrap;html=1;spacingLeft=15;spacingRight=15;" parent="1" vertex="1">
                    <mxGeometry x="459" y="220" width="130" height="80" as="geometry"/>
                </mxCell>
                <mxCell id="ZuNL9oyqCu-HNJ8LQn7s-15" value="add products to shopping cart" style="ellipse;shape=cloud;whiteSpace=wrap;html=1;spacingLeft=15;spacingRight=15;" parent="1" vertex="1">
                    <mxGeometry x="383" y="305" width="130" height="80" as="geometry"/>
                </mxCell>
                <mxCell id="ZuNL9oyqCu-HNJ8LQn7s-16" value="view &amp;amp; update shopping cart" style="ellipse;shape=cloud;whiteSpace=wrap;html=1;spacingLeft=15;spacingRight=15;" parent="1" vertex="1">
                    <mxGeometry x="529" y="300" width="130" height="80" as="geometry"/>
                </mxCell>
                <mxCell id="ZuNL9oyqCu-HNJ8LQn7s-17" value="purchase contents of shopping cart" style="ellipse;shape=cloud;whiteSpace=wrap;html=1;spacingLeft=16;spacingRight=16;" parent="1" vertex="1">
                    <mxGeometry x="459" y="370" width="130" height="80" as="geometry"/>
                </mxCell>
                <mxCell id="ZuNL9oyqCu-HNJ8LQn7s-18" value="write reviews of products&amp;nbsp;&lt;br&gt;bought" style="ellipse;shape=cloud;whiteSpace=wrap;html=1;spacingLeft=16;spacingRight=16;" parent="1" vertex="1">
                    <mxGeometry x="549" y="440" width="130" height="80" as="geometry"/>
                </mxCell>
                <mxCell id="ZuNL9oyqCu-HNJ8LQn7s-19" value="create, update, delete products" style="ellipse;shape=cloud;whiteSpace=wrap;html=1;spacingLeft=16;spacingRight=16;" parent="1" vertex="1">
                    <mxGeometry x="109" y="680" width="130" height="80" as="geometry"/>
                </mxCell>
                <mxCell id="ZuNL9oyqCu-HNJ8LQn7s-20" value="create, update, delete users &amp;amp; admins" style="ellipse;shape=cloud;whiteSpace=wrap;html=1;spacingLeft=16;spacingRight=16;" parent="1" vertex="1">
                    <mxGeometry x="579" y="540" width="130" height="80" as="geometry"/>
                </mxCell>
                <mxCell id="ZuNL9oyqCu-HNJ8LQn7s-21" value="delete product reviews" style="ellipse;shape=cloud;whiteSpace=wrap;html=1;spacingLeft=16;spacingRight=16;" parent="1" vertex="1">
                    <mxGeometry x="409" y="670" width="130" height="80" as="geometry"/>
                </mxCell>
                <mxCell id="ZuNL9oyqCu-HNJ8LQn7s-22" value="view sales statistics" style="ellipse;shape=cloud;whiteSpace=wrap;html=1;spacingLeft=16;spacingRight=16;" parent="1" vertex="1">
                    <mxGeometry x="579" y="680" width="130" height="80" as="geometry"/>
                </mxCell>
                <mxCell id="ZuNL9oyqCu-HNJ8LQn7s-23" value="create discounts or special offers" style="ellipse;shape=cloud;whiteSpace=wrap;html=1;spacingLeft=16;spacingRight=16;" parent="1" vertex="1">
                    <mxGeometry x="186.6" y="620" width="130" height="80" as="geometry"/>
                </mxCell>
                <mxCell id="ZuNL9oyqCu-HNJ8LQn7s-24" value="activate &amp;amp; deactive products" style="ellipse;shape=cloud;whiteSpace=wrap;html=1;spacingLeft=17;spacingRight=17;" parent="1" vertex="1">
                    <mxGeometry x="253" y="690" width="130" height="80" as="geometry"/>
                </mxCell>
                <mxCell id="ZuNL9oyqCu-HNJ8LQn7s-25" value="ban users" style="ellipse;shape=cloud;whiteSpace=wrap;html=1;spacingLeft=17;spacingRight=17;" parent="1" vertex="1">
                    <mxGeometry x="459" y="560" width="130" height="80" as="geometry"/>
                </mxCell>
                <mxCell id="ZuNL9oyqCu-HNJ8LQn7s-26" value="categorize products" style="ellipse;shape=cloud;whiteSpace=wrap;html=1;spacingLeft=17;spacingRight=17;" parent="1" vertex="1">
                    <mxGeometry x="303" y="590" width="130" height="80" as="geometry"/>
                </mxCell>
                <mxCell id="ZuNL9oyqCu-HNJ8LQn7s-27" value="pay order via Playpal" style="ellipse;shape=cloud;whiteSpace=wrap;html=1;spacingLeft=16;spacingRight=16;fillColor=#f5f5f5;strokeColor=#666666;fontColor=#333333;" parent="1" vertex="1">
                    <mxGeometry x="399" y="440" width="130" height="80" as="geometry"/>
                </mxCell>
                <mxCell id="ZuNL9oyqCu-HNJ8LQn7s-28" value="Live chat with admin" style="ellipse;shape=cloud;whiteSpace=wrap;html=1;spacingLeft=16;spacingRight=16;fillColor=#f5f5f5;strokeColor=#666666;fontColor=#333333;" parent="1" vertex="1">
                    <mxGeometry x="190.1" y="460" width="130" height="80" as="geometry"/>
                </mxCell>
                <mxCell id="ZuNL9oyqCu-HNJ8LQn7s-29" value="Live chat with customers" style="ellipse;shape=cloud;whiteSpace=wrap;html=1;spacingLeft=16;spacingRight=16;fillColor=#f5f5f5;strokeColor=#666666;fontColor=#333333;" parent="1" vertex="1">
                    <mxGeometry x="142" y="510" width="130" height="80" as="geometry"/>
                </mxCell>
            </root>
        </mxGraphModel>
    </diagram>
    <diagram id="D12OfJo1ypDJS4uGtAlh" name="2a_ERD">
        <mxGraphModel dx="1277" dy="573" grid="1" gridSize="10" guides="1" tooltips="1" connect="1" arrows="1" fold="1" page="1" pageScale="1" pageWidth="827" pageHeight="1169" math="0" shadow="0">
            <root>
                <mxCell id="dq8DGMU5Pl0ecyv3gSid-0"/>
                <mxCell id="dq8DGMU5Pl0ecyv3gSid-1" parent="dq8DGMU5Pl0ecyv3gSid-0"/>
                <mxCell id="m-AgLVFVCp_2s4KZoXLv-0" value="E-Commerce Site &lt;span style=&quot;font-weight: 700&quot;&gt;ERD&lt;/span&gt;" style="rounded=1;whiteSpace=wrap;html=1;fontSize=20;" parent="dq8DGMU5Pl0ecyv3gSid-1" vertex="1">
                    <mxGeometry x="300" y="30" width="200" height="60" as="geometry"/>
                </mxCell>
                <mxCell id="m-AgLVFVCp_2s4KZoXLv-1" style="edgeStyle=orthogonalEdgeStyle;rounded=0;orthogonalLoop=1;jettySize=auto;html=1;entryX=0.25;entryY=0;entryDx=0;entryDy=0;startArrow=ERzeroToMany;startFill=1;endArrow=ERmandOne;endFill=0;strokeWidth=1;exitX=0.5;exitY=1;exitDx=0;exitDy=0;endSize=8;startSize=8;" parent="dq8DGMU5Pl0ecyv3gSid-1" source="m-AgLVFVCp_2s4KZoXLv-19" target="m-AgLVFVCp_2s4KZoXLv-7" edge="1">
                    <mxGeometry relative="1" as="geometry">
                        <mxPoint x="478" y="450" as="sourcePoint"/>
                    </mxGeometry>
                </mxCell>
                <mxCell id="m-AgLVFVCp_2s4KZoXLv-2" value="writes" style="edgeLabel;html=1;align=center;verticalAlign=middle;resizable=0;points=[];fontSize=14;fontColor=#808080;" parent="m-AgLVFVCp_2s4KZoXLv-1" vertex="1" connectable="0">
                    <mxGeometry x="-0.0633" y="1" relative="1" as="geometry">
                        <mxPoint y="41" as="offset"/>
                    </mxGeometry>
                </mxCell>
                <mxCell id="m-AgLVFVCp_2s4KZoXLv-3" style="edgeStyle=orthogonalEdgeStyle;rounded=0;orthogonalLoop=1;jettySize=auto;html=1;exitX=0;exitY=0.5;exitDx=0;exitDy=0;startArrow=ERzeroToMany;startFill=1;startSize=8;endArrow=ERmandOne;endFill=0;endSize=8;strokeWidth=1;fontSize=14;entryX=0.5;entryY=0;entryDx=0;entryDy=0;" parent="dq8DGMU5Pl0ecyv3gSid-1" source="m-AgLVFVCp_2s4KZoXLv-34" target="m-AgLVFVCp_2s4KZoXLv-7" edge="1">
                    <mxGeometry relative="1" as="geometry">
                        <mxPoint x="478" y="430" as="targetPoint"/>
                    </mxGeometry>
                </mxCell>
                <mxCell id="m-AgLVFVCp_2s4KZoXLv-4" value="writes" style="edgeLabel;html=1;align=center;verticalAlign=middle;resizable=0;points=[];fontSize=14;fontColor=#808080;" parent="m-AgLVFVCp_2s4KZoXLv-3" vertex="1" connectable="0">
                    <mxGeometry x="-0.119" y="-1" relative="1" as="geometry">
                        <mxPoint x="-6" y="81" as="offset"/>
                    </mxGeometry>
                </mxCell>
                <mxCell id="m-AgLVFVCp_2s4KZoXLv-43" style="edgeStyle=orthogonalEdgeStyle;rounded=0;orthogonalLoop=1;jettySize=auto;html=1;startArrow=ERzeroToMany;startFill=1;startSize=6;endArrow=ERzeroToMany;endFill=1;endSize=6;strokeWidth=1;fontSize=14;fontColor=#808080;entryX=0.5;entryY=0;entryDx=0;entryDy=0;exitX=0.5;exitY=1;exitDx=0;exitDy=0;" parent="dq8DGMU5Pl0ecyv3gSid-1" source="m-AgLVFVCp_2s4KZoXLv-7" target="m-AgLVFVCp_2s4KZoXLv-10" edge="1">
                    <mxGeometry relative="1" as="geometry">
                        <mxPoint x="258" y="400" as="targetPoint"/>
                        <mxPoint x="372" y="550" as="sourcePoint"/>
                    </mxGeometry>
                </mxCell>
                <mxCell id="m-AgLVFVCp_2s4KZoXLv-44" value="adds" style="edgeLabel;html=1;align=center;verticalAlign=middle;resizable=0;points=[];fontSize=14;fontColor=#808080;" parent="m-AgLVFVCp_2s4KZoXLv-43" vertex="1" connectable="0">
                    <mxGeometry x="0.2126" y="3" relative="1" as="geometry">
                        <mxPoint x="-3" y="-19" as="offset"/>
                    </mxGeometry>
                </mxCell>
                <mxCell id="ji0iTJspGumRDFQtUEsR-1" style="edgeStyle=none;rounded=0;orthogonalLoop=1;jettySize=auto;html=1;exitX=0;exitY=0;exitDx=0;exitDy=0;entryX=0.5;entryY=1;entryDx=0;entryDy=0;dashed=1;endArrow=none;endFill=0;" parent="dq8DGMU5Pl0ecyv3gSid-1" source="m-AgLVFVCp_2s4KZoXLv-7" target="ji0iTJspGumRDFQtUEsR-0" edge="1">
                    <mxGeometry relative="1" as="geometry"/>
                </mxCell>
                <mxCell id="m-AgLVFVCp_2s4KZoXLv-7" value="user" style="rounded=0;whiteSpace=wrap;html=1;fontSize=20;fillColor=#f0a30a;strokeColor=#BD7000;fontColor=#ffffff;" parent="dq8DGMU5Pl0ecyv3gSid-1" vertex="1">
                    <mxGeometry x="372" y="520" width="120" height="60" as="geometry"/>
                </mxCell>
                <mxCell id="m-AgLVFVCp_2s4KZoXLv-10" value="product" style="rounded=0;whiteSpace=wrap;html=1;fontSize=20;fillColor=#6d8764;strokeColor=#3A5431;fontColor=#ffffff;" parent="dq8DGMU5Pl0ecyv3gSid-1" vertex="1">
                    <mxGeometry x="372" y="660" width="120" height="60" as="geometry"/>
                </mxCell>
                <mxCell id="YT79-mnsfoKJAUdVVFap-6" style="edgeStyle=none;rounded=0;orthogonalLoop=1;jettySize=auto;html=1;exitX=0;exitY=0.5;exitDx=0;exitDy=0;entryX=1;entryY=1;entryDx=0;entryDy=0;dashed=1;endArrow=none;endFill=0;" parent="dq8DGMU5Pl0ecyv3gSid-1" source="m-AgLVFVCp_2s4KZoXLv-11" target="YT79-mnsfoKJAUdVVFap-5" edge="1">
                    <mxGeometry relative="1" as="geometry"/>
                </mxCell>
                <mxCell id="m-AgLVFVCp_2s4KZoXLv-11" value="purchase" style="rounded=0;whiteSpace=wrap;html=1;fontSize=20;fillColor=#76608a;strokeColor=#432D57;fontColor=#ffffff;" parent="dq8DGMU5Pl0ecyv3gSid-1" vertex="1">
                    <mxGeometry x="148" y="520" width="120" height="60" as="geometry"/>
                </mxCell>
                <mxCell id="YT79-mnsfoKJAUdVVFap-8" style="edgeStyle=none;rounded=0;orthogonalLoop=1;jettySize=auto;html=1;exitX=0.75;exitY=0;exitDx=0;exitDy=0;entryX=0.5;entryY=1;entryDx=0;entryDy=0;dashed=1;endArrow=none;endFill=0;" parent="dq8DGMU5Pl0ecyv3gSid-1" source="m-AgLVFVCp_2s4KZoXLv-12" target="YT79-mnsfoKJAUdVVFap-7" edge="1">
                    <mxGeometry relative="1" as="geometry"/>
                </mxCell>
                <mxCell id="m-AgLVFVCp_2s4KZoXLv-12" value="review" style="rounded=0;whiteSpace=wrap;html=1;fontSize=20;fillColor=#a0522d;strokeColor=#6D1F00;fontColor=#ffffff;" parent="dq8DGMU5Pl0ecyv3gSid-1" vertex="1">
                    <mxGeometry x="618" y="460" width="120" height="60" as="geometry"/>
                </mxCell>
                <mxCell id="m-AgLVFVCp_2s4KZoXLv-13" value="cart" style="rounded=0;whiteSpace=wrap;html=1;fontSize=20;fillColor=#76608a;strokeColor=#432D57;fontColor=#ffffff;" parent="dq8DGMU5Pl0ecyv3gSid-1" vertex="1">
                    <mxGeometry x="68" y="660" width="120" height="60" as="geometry"/>
                </mxCell>
                <mxCell id="m-AgLVFVCp_2s4KZoXLv-14" value="cart_item" style="rounded=0;whiteSpace=wrap;html=1;fontSize=20;fillColor=#76608a;strokeColor=#432D57;fontColor=#ffffff;" parent="dq8DGMU5Pl0ecyv3gSid-1" vertex="1">
                    <mxGeometry x="68" y="810" width="120" height="60" as="geometry"/>
                </mxCell>
                <mxCell id="m-AgLVFVCp_2s4KZoXLv-15" value="purchase&lt;br&gt;_item" style="rounded=0;whiteSpace=wrap;html=1;fontSize=20;fillColor=#76608a;strokeColor=#432D57;fontColor=#ffffff;" parent="dq8DGMU5Pl0ecyv3gSid-1" vertex="1">
                    <mxGeometry x="148" y="370" width="120" height="60" as="geometry"/>
                </mxCell>
                <mxCell id="m-AgLVFVCp_2s4KZoXLv-17" style="edgeStyle=orthogonalEdgeStyle;rounded=0;orthogonalLoop=1;jettySize=auto;html=1;exitX=0.25;exitY=0;exitDx=0;exitDy=0;startArrow=ERzeroToMany;startFill=1;startSize=8;endArrow=ERmandOne;endFill=0;endSize=8;strokeWidth=1;fontSize=14;entryX=1;entryY=0.5;entryDx=0;entryDy=0;" parent="dq8DGMU5Pl0ecyv3gSid-1" source="m-AgLVFVCp_2s4KZoXLv-34" target="m-AgLVFVCp_2s4KZoXLv-19" edge="1">
                    <mxGeometry relative="1" as="geometry">
                        <mxPoint x="348" y="430" as="targetPoint"/>
                        <Array as="points"/>
                    </mxGeometry>
                </mxCell>
                <mxCell id="m-AgLVFVCp_2s4KZoXLv-18" value="has" style="edgeLabel;html=1;align=center;verticalAlign=middle;resizable=0;points=[];fontSize=14;fontColor=#808080;" parent="m-AgLVFVCp_2s4KZoXLv-17" vertex="1" connectable="0">
                    <mxGeometry x="0.2014" y="1" relative="1" as="geometry">
                        <mxPoint x="-26" y="-1" as="offset"/>
                    </mxGeometry>
                </mxCell>
                <mxCell id="YT79-mnsfoKJAUdVVFap-1" style="edgeStyle=none;rounded=0;orthogonalLoop=1;jettySize=auto;html=1;exitX=0.5;exitY=0;exitDx=0;exitDy=0;entryX=0.5;entryY=1;entryDx=0;entryDy=0;dashed=1;endArrow=none;endFill=0;" parent="dq8DGMU5Pl0ecyv3gSid-1" source="m-AgLVFVCp_2s4KZoXLv-19" target="YT79-mnsfoKJAUdVVFap-0" edge="1">
                    <mxGeometry relative="1" as="geometry"/>
                </mxCell>
                <mxCell id="m-AgLVFVCp_2s4KZoXLv-19" value="question" style="rounded=0;whiteSpace=wrap;html=1;fontSize=20;fillColor=#a0522d;strokeColor=#6D1F00;fontColor=#ffffff;" parent="dq8DGMU5Pl0ecyv3gSid-1" vertex="1">
                    <mxGeometry x="342" y="310" width="120" height="60" as="geometry"/>
                </mxCell>
                <mxCell id="m-AgLVFVCp_2s4KZoXLv-20" style="rounded=0;orthogonalLoop=1;jettySize=auto;html=1;startArrow=ERmandOne;startFill=0;endArrow=ERone;endFill=0;fontSize=20;strokeWidth=1;endSize=8;startSize=8;edgeStyle=orthogonalEdgeStyle;entryX=1;entryY=0.5;entryDx=0;entryDy=0;exitX=0;exitY=0.5;exitDx=0;exitDy=0;" parent="dq8DGMU5Pl0ecyv3gSid-1" source="m-AgLVFVCp_2s4KZoXLv-10" target="m-AgLVFVCp_2s4KZoXLv-13" edge="1">
                    <mxGeometry relative="1" as="geometry">
                        <mxPoint x="68" y="610" as="targetPoint"/>
                        <mxPoint x="288" y="760" as="sourcePoint"/>
                    </mxGeometry>
                </mxCell>
                <mxCell id="zR6NrUlydfPltpJHWyG5-3" value="contains" style="edgeLabel;html=1;align=center;verticalAlign=middle;resizable=0;points=[];fontSize=14;fontColor=#808080;" parent="m-AgLVFVCp_2s4KZoXLv-20" vertex="1" connectable="0">
                    <mxGeometry x="0.1087" y="-1" relative="1" as="geometry">
                        <mxPoint x="-32" y="1" as="offset"/>
                    </mxGeometry>
                </mxCell>
                <mxCell id="m-AgLVFVCp_2s4KZoXLv-21" style="rounded=0;orthogonalLoop=1;jettySize=auto;html=1;startArrow=ERmandOne;startFill=0;endArrow=ERzeroToMany;endFill=1;fontSize=20;entryX=1;entryY=0.5;entryDx=0;entryDy=0;exitX=0;exitY=0.5;exitDx=0;exitDy=0;strokeWidth=1;endSize=8;startSize=8;edgeStyle=orthogonalEdgeStyle;" parent="dq8DGMU5Pl0ecyv3gSid-1" source="m-AgLVFVCp_2s4KZoXLv-7" target="m-AgLVFVCp_2s4KZoXLv-11" edge="1">
                    <mxGeometry relative="1" as="geometry">
                        <mxPoint x="598" y="408" as="targetPoint"/>
                        <mxPoint x="497.5" y="408" as="sourcePoint"/>
                    </mxGeometry>
                </mxCell>
                <mxCell id="m-AgLVFVCp_2s4KZoXLv-22" value="makes" style="edgeLabel;html=1;align=center;verticalAlign=middle;resizable=0;points=[];fontSize=14;fontColor=#808080;" parent="m-AgLVFVCp_2s4KZoXLv-21" vertex="1" connectable="0">
                    <mxGeometry x="-0.0915" y="1" relative="1" as="geometry">
                        <mxPoint as="offset"/>
                    </mxGeometry>
                </mxCell>
                <mxCell id="m-AgLVFVCp_2s4KZoXLv-25" style="rounded=0;orthogonalLoop=1;jettySize=auto;html=1;exitX=0.5;exitY=0;exitDx=0;exitDy=0;entryX=0.5;entryY=1;entryDx=0;entryDy=0;startArrow=ERmandOne;startFill=0;endArrow=ERoneToMany;endFill=0;fontSize=20;endSize=8;startSize=8;edgeStyle=orthogonalEdgeStyle;" parent="dq8DGMU5Pl0ecyv3gSid-1" source="m-AgLVFVCp_2s4KZoXLv-11" target="m-AgLVFVCp_2s4KZoXLv-15" edge="1">
                    <mxGeometry relative="1" as="geometry">
                        <mxPoint x="750" y="329.9999999999998" as="sourcePoint"/>
                        <mxPoint x="746.5" y="105" as="targetPoint"/>
                    </mxGeometry>
                </mxCell>
                <mxCell id="m-AgLVFVCp_2s4KZoXLv-26" value="contains" style="edgeLabel;html=1;align=center;verticalAlign=middle;resizable=0;points=[];fontSize=14;fontColor=#808080;" parent="m-AgLVFVCp_2s4KZoXLv-25" vertex="1" connectable="0">
                    <mxGeometry x="0.1286" y="-1" relative="1" as="geometry">
                        <mxPoint x="-1" y="20.59" as="offset"/>
                    </mxGeometry>
                </mxCell>
                <mxCell id="m-AgLVFVCp_2s4KZoXLv-32" style="edgeStyle=orthogonalEdgeStyle;rounded=0;orthogonalLoop=1;jettySize=auto;html=1;entryX=0.75;entryY=0;entryDx=0;entryDy=0;startArrow=ERzeroToMany;startFill=1;endArrow=ERmandOne;endFill=0;strokeWidth=1;exitX=0;exitY=0.5;exitDx=0;exitDy=0;endSize=8;startSize=8;" parent="dq8DGMU5Pl0ecyv3gSid-1" source="m-AgLVFVCp_2s4KZoXLv-12" target="m-AgLVFVCp_2s4KZoXLv-7" edge="1">
                    <mxGeometry relative="1" as="geometry">
                        <mxPoint x="338" y="410" as="sourcePoint"/>
                        <mxPoint x="412" y="530" as="targetPoint"/>
                    </mxGeometry>
                </mxCell>
                <mxCell id="m-AgLVFVCp_2s4KZoXLv-33" value="writes" style="edgeLabel;html=1;align=center;verticalAlign=middle;resizable=0;points=[];fontSize=14;fontColor=#808080;" parent="m-AgLVFVCp_2s4KZoXLv-32" vertex="1" connectable="0">
                    <mxGeometry x="0.0668" y="1" relative="1" as="geometry">
                        <mxPoint x="-27" y="-1" as="offset"/>
                    </mxGeometry>
                </mxCell>
                <mxCell id="m-AgLVFVCp_2s4KZoXLv-34" value="answer" style="rounded=0;whiteSpace=wrap;html=1;fontSize=20;fillColor=#a0522d;strokeColor=#6D1F00;fontColor=#ffffff;" parent="dq8DGMU5Pl0ecyv3gSid-1" vertex="1">
                    <mxGeometry x="558" y="370" width="120" height="60" as="geometry"/>
                </mxCell>
                <mxCell id="m-AgLVFVCp_2s4KZoXLv-42" value="" style="endArrow=none;html=1;rounded=0;strokeWidth=1;exitX=0.5;exitY=1;exitDx=0;exitDy=0;entryX=0.5;entryY=0;entryDx=0;entryDy=0;dashed=1;" parent="dq8DGMU5Pl0ecyv3gSid-1" source="phhqWTNZPmQrfCrYi9W2-3" target="m-AgLVFVCp_2s4KZoXLv-34" edge="1">
                    <mxGeometry relative="1" as="geometry">
                        <mxPoint x="668" y="321.25" as="sourcePoint"/>
                        <mxPoint x="738" y="118.75" as="targetPoint"/>
                    </mxGeometry>
                </mxCell>
                <mxCell id="m-AgLVFVCp_2s4KZoXLv-46" style="rounded=0;orthogonalLoop=1;jettySize=auto;html=1;exitX=0.5;exitY=1;exitDx=0;exitDy=0;entryX=0.5;entryY=0;entryDx=0;entryDy=0;startArrow=ERmandOne;startFill=0;endArrow=ERzeroToMany;endFill=1;fontSize=20;endSize=8;startSize=8;edgeStyle=orthogonalEdgeStyle;" parent="dq8DGMU5Pl0ecyv3gSid-1" source="m-AgLVFVCp_2s4KZoXLv-13" target="m-AgLVFVCp_2s4KZoXLv-14" edge="1">
                    <mxGeometry relative="1" as="geometry">
                        <mxPoint x="768" y="530" as="sourcePoint"/>
                        <mxPoint x="768" y="410" as="targetPoint"/>
                    </mxGeometry>
                </mxCell>
                <mxCell id="m-AgLVFVCp_2s4KZoXLv-47" value="contains" style="edgeLabel;html=1;align=center;verticalAlign=middle;resizable=0;points=[];fontSize=14;fontColor=#808080;" parent="m-AgLVFVCp_2s4KZoXLv-46" vertex="1" connectable="0">
                    <mxGeometry x="0.1286" y="-1" relative="1" as="geometry">
                        <mxPoint x="1" y="-21" as="offset"/>
                    </mxGeometry>
                </mxCell>
                <mxCell id="m-AgLVFVCp_2s4KZoXLv-49" value="creates&lt;br&gt;updates&lt;br&gt;deletes" style="edgeStyle=orthogonalEdgeStyle;rounded=0;orthogonalLoop=1;jettySize=auto;html=1;exitX=0;exitY=0.5;exitDx=0;exitDy=0;entryX=1;entryY=0.5;entryDx=0;entryDy=0;startArrow=ERone;startFill=0;startSize=6;endArrow=ERzeroToMany;endFill=1;endSize=6;strokeWidth=1;fontSize=14;fontColor=#808080;" parent="dq8DGMU5Pl0ecyv3gSid-1" source="m-AgLVFVCp_2s4KZoXLv-48" target="m-AgLVFVCp_2s4KZoXLv-10" edge="1">
                    <mxGeometry x="-0.3651" relative="1" as="geometry">
                        <Array as="points">
                            <mxPoint x="558" y="690"/>
                            <mxPoint x="558" y="690"/>
                        </Array>
                        <mxPoint as="offset"/>
                    </mxGeometry>
                </mxCell>
                <mxCell id="zR6NrUlydfPltpJHWyG5-0" value="deletes" style="edgeStyle=orthogonalEdgeStyle;rounded=0;orthogonalLoop=1;jettySize=auto;html=1;exitX=0.5;exitY=0;exitDx=0;exitDy=0;entryX=0.5;entryY=1;entryDx=0;entryDy=0;startArrow=ERone;startFill=0;startSize=6;endArrow=ERzeroToMany;endFill=1;endSize=6;strokeWidth=1;fontSize=14;fontColor=#808080;" parent="dq8DGMU5Pl0ecyv3gSid-1" source="m-AgLVFVCp_2s4KZoXLv-48" target="m-AgLVFVCp_2s4KZoXLv-12" edge="1">
                    <mxGeometry x="-0.7143" relative="1" as="geometry">
                        <mxPoint as="offset"/>
                    </mxGeometry>
                </mxCell>
                <mxCell id="zR6NrUlydfPltpJHWyG5-1" style="edgeStyle=orthogonalEdgeStyle;rounded=0;orthogonalLoop=1;jettySize=auto;html=1;exitX=1;exitY=0.5;exitDx=0;exitDy=0;entryX=1;entryY=0.5;entryDx=0;entryDy=0;startArrow=ERone;startFill=0;startSize=6;endArrow=ERzeroToMany;endFill=1;endSize=6;strokeWidth=1;fontSize=14;fontColor=#808080;" parent="dq8DGMU5Pl0ecyv3gSid-1" source="m-AgLVFVCp_2s4KZoXLv-48" target="m-AgLVFVCp_2s4KZoXLv-34" edge="1">
                    <mxGeometry relative="1" as="geometry"/>
                </mxCell>
                <mxCell id="zR6NrUlydfPltpJHWyG5-2" value="writes" style="edgeLabel;html=1;align=center;verticalAlign=middle;resizable=0;points=[];fontSize=14;fontColor=#808080;" parent="zR6NrUlydfPltpJHWyG5-1" vertex="1" connectable="0">
                    <mxGeometry x="-0.1073" y="-1" relative="1" as="geometry">
                        <mxPoint y="103" as="offset"/>
                    </mxGeometry>
                </mxCell>
                <mxCell id="OdJI6nRCbVsHvfVriu1J-0" style="edgeStyle=orthogonalEdgeStyle;rounded=0;orthogonalLoop=1;jettySize=auto;html=1;exitX=0.25;exitY=0;exitDx=0;exitDy=0;entryX=1;entryY=0.5;entryDx=0;entryDy=0;startArrow=ERone;startFill=0;startSize=6;endArrow=ERzeroToMany;endFill=1;endSize=6;strokeWidth=1;fontSize=14;fontColor=#808080;" parent="dq8DGMU5Pl0ecyv3gSid-1" source="m-AgLVFVCp_2s4KZoXLv-48" target="m-AgLVFVCp_2s4KZoXLv-7" edge="1">
                    <mxGeometry relative="1" as="geometry"/>
                </mxCell>
                <mxCell id="OdJI6nRCbVsHvfVriu1J-1" value="creates&lt;br&gt;updates&lt;br&gt;deletes" style="edgeLabel;html=1;align=center;verticalAlign=middle;resizable=0;points=[];fontSize=14;fontColor=#808080;" parent="OdJI6nRCbVsHvfVriu1J-0" vertex="1" connectable="0">
                    <mxGeometry x="-0.6917" y="-2" relative="1" as="geometry">
                        <mxPoint x="-22" y="-19" as="offset"/>
                    </mxGeometry>
                </mxCell>
                <mxCell id="ji0iTJspGumRDFQtUEsR-2" style="edgeStyle=orthogonalEdgeStyle;rounded=0;orthogonalLoop=1;jettySize=auto;html=1;exitX=1;exitY=1;exitDx=0;exitDy=0;entryX=1;entryY=0;entryDx=0;entryDy=0;dashed=1;endArrow=none;endFill=0;curved=1;" parent="dq8DGMU5Pl0ecyv3gSid-1" source="m-AgLVFVCp_2s4KZoXLv-48" target="ji0iTJspGumRDFQtUEsR-0" edge="1">
                    <mxGeometry relative="1" as="geometry">
                        <Array as="points">
                            <mxPoint x="810" y="720"/>
                            <mxPoint x="810" y="120"/>
                            <mxPoint x="328" y="120"/>
                        </Array>
                    </mxGeometry>
                </mxCell>
                <mxCell id="m-AgLVFVCp_2s4KZoXLv-48" value="admin" style="rounded=0;whiteSpace=wrap;html=1;fontSize=20;fillColor=#f0a30a;strokeColor=#BD7000;fontColor=#ffffff;" parent="dq8DGMU5Pl0ecyv3gSid-1" vertex="1">
                    <mxGeometry x="618" y="660" width="120" height="60" as="geometry"/>
                </mxCell>
                <mxCell id="EBKUBGyDTRCQFWBLVN84-0" style="edgeStyle=orthogonalEdgeStyle;rounded=0;orthogonalLoop=1;jettySize=auto;html=1;exitX=0.25;exitY=1;exitDx=0;exitDy=0;entryX=0;entryY=0.75;entryDx=0;entryDy=0;startArrow=ERone;startFill=0;startSize=6;endArrow=ERone;endFill=0;endSize=6;strokeWidth=1;fontSize=14;fontColor=#808080;curved=1;" parent="dq8DGMU5Pl0ecyv3gSid-1" source="m-AgLVFVCp_2s4KZoXLv-7" target="m-AgLVFVCp_2s4KZoXLv-7" edge="1">
                    <mxGeometry relative="1" as="geometry">
                        <Array as="points">
                            <mxPoint x="402" y="600"/>
                            <mxPoint x="338" y="600"/>
                            <mxPoint x="338" y="565"/>
                        </Array>
                    </mxGeometry>
                </mxCell>
                <mxCell id="EBKUBGyDTRCQFWBLVN84-1" value="updates" style="edgeLabel;html=1;align=center;verticalAlign=middle;resizable=0;points=[];fontSize=14;fontColor=#808080;" parent="EBKUBGyDTRCQFWBLVN84-0" vertex="1" connectable="0">
                    <mxGeometry x="-0.1634" y="1" relative="1" as="geometry">
                        <mxPoint as="offset"/>
                    </mxGeometry>
                </mxCell>
                <mxCell id="omnmTCstZ9z4sOc0Fr5K-0" style="rounded=0;orthogonalLoop=1;jettySize=auto;html=1;exitX=0.5;exitY=0;exitDx=0;exitDy=0;entryX=0.5;entryY=1;entryDx=0;entryDy=0;dashed=1;endArrow=none;endFill=0;" parent="dq8DGMU5Pl0ecyv3gSid-1" source="omnmTCstZ9z4sOc0Fr5K-1" target="m-AgLVFVCp_2s4KZoXLv-10" edge="1">
                    <mxGeometry relative="1" as="geometry">
                        <mxPoint x="622" y="929.3800000000001" as="targetPoint"/>
                    </mxGeometry>
                </mxCell>
                <mxCell id="omnmTCstZ9z4sOc0Fr5K-1" value="name&lt;br&gt;category&lt;br&gt;brand&lt;br&gt;description&lt;br&gt;price&lt;br&gt;stock" style="ellipse;whiteSpace=wrap;html=1;align=center;" parent="dq8DGMU5Pl0ecyv3gSid-1" vertex="1">
                    <mxGeometry x="458" y="780" width="80" height="112" as="geometry"/>
                </mxCell>
                <mxCell id="phhqWTNZPmQrfCrYi9W2-0" style="edgeStyle=none;rounded=0;orthogonalLoop=1;jettySize=auto;html=1;exitX=0.5;exitY=0;exitDx=0;exitDy=0;entryX=1;entryY=0.5;entryDx=0;entryDy=0;dashed=1;endArrow=none;endFill=0;" parent="dq8DGMU5Pl0ecyv3gSid-1" source="1MVBZyxZyB4sKXrwzYp0-0" target="m-AgLVFVCp_2s4KZoXLv-14" edge="1">
                    <mxGeometry relative="1" as="geometry"/>
                </mxCell>
                <mxCell id="1MVBZyxZyB4sKXrwzYp0-0" value="cart id&lt;br&gt;product id&lt;br&gt;quantity" style="ellipse;whiteSpace=wrap;html=1;align=center;" parent="dq8DGMU5Pl0ecyv3gSid-1" vertex="1">
                    <mxGeometry x="218" y="880" width="80" height="112" as="geometry"/>
                </mxCell>
                <mxCell id="phhqWTNZPmQrfCrYi9W2-2" style="edgeStyle=none;rounded=0;orthogonalLoop=1;jettySize=auto;html=1;exitX=0.5;exitY=0;exitDx=0;exitDy=0;entryX=1;entryY=1;entryDx=0;entryDy=0;dashed=1;endArrow=none;endFill=0;" parent="dq8DGMU5Pl0ecyv3gSid-1" source="phhqWTNZPmQrfCrYi9W2-1" target="m-AgLVFVCp_2s4KZoXLv-13" edge="1">
                    <mxGeometry relative="1" as="geometry"/>
                </mxCell>
                <mxCell id="phhqWTNZPmQrfCrYi9W2-1" value="cart id&lt;br&gt;user id" style="ellipse;whiteSpace=wrap;html=1;align=center;" parent="dq8DGMU5Pl0ecyv3gSid-1" vertex="1">
                    <mxGeometry x="308" y="830" width="80" height="112" as="geometry"/>
                </mxCell>
                <mxCell id="phhqWTNZPmQrfCrYi9W2-3" value="answer id&lt;br&gt;question id&lt;br&gt;user id&lt;br&gt;text" style="ellipse;whiteSpace=wrap;html=1;align=center;" parent="dq8DGMU5Pl0ecyv3gSid-1" vertex="1">
                    <mxGeometry x="568" y="190" width="80" height="112" as="geometry"/>
                </mxCell>
                <mxCell id="YT79-mnsfoKJAUdVVFap-0" value="question id&lt;br&gt;user id&lt;br&gt;product id&lt;br&gt;text" style="ellipse;whiteSpace=wrap;html=1;align=center;" parent="dq8DGMU5Pl0ecyv3gSid-1" vertex="1">
                    <mxGeometry x="388" y="140" width="80" height="112" as="geometry"/>
                </mxCell>
                <mxCell id="YT79-mnsfoKJAUdVVFap-2" value="purchase item id&lt;br&gt;product id&lt;br&gt;quantity" style="ellipse;whiteSpace=wrap;html=1;align=center;" parent="dq8DGMU5Pl0ecyv3gSid-1" vertex="1">
                    <mxGeometry x="128" y="170" width="110" height="112" as="geometry"/>
                </mxCell>
                <mxCell id="YT79-mnsfoKJAUdVVFap-3" style="edgeStyle=none;rounded=0;orthogonalLoop=1;jettySize=auto;html=1;exitX=0.5;exitY=0;exitDx=0;exitDy=0;entryX=0.5;entryY=1;entryDx=0;entryDy=0;dashed=1;endArrow=none;endFill=0;" parent="dq8DGMU5Pl0ecyv3gSid-1" source="m-AgLVFVCp_2s4KZoXLv-15" target="YT79-mnsfoKJAUdVVFap-2" edge="1">
                    <mxGeometry relative="1" as="geometry">
                        <mxPoint x="342" y="270" as="sourcePoint"/>
                        <mxPoint x="272" y="230" as="targetPoint"/>
                    </mxGeometry>
                </mxCell>
                <mxCell id="YT79-mnsfoKJAUdVVFap-5" value="purchase id&lt;br&gt;user id&lt;br&gt;purchase date&lt;br&gt;payment status&lt;br&gt;" style="ellipse;whiteSpace=wrap;html=1;align=center;" parent="dq8DGMU5Pl0ecyv3gSid-1" vertex="1">
                    <mxGeometry x="10" y="410" width="110" height="104" as="geometry"/>
                </mxCell>
                <mxCell id="YT79-mnsfoKJAUdVVFap-7" value="review id&lt;br&gt;user id&lt;br&gt;product id&lt;br&gt;rating&lt;br&gt;comment" style="ellipse;whiteSpace=wrap;html=1;align=center;" parent="dq8DGMU5Pl0ecyv3gSid-1" vertex="1">
                    <mxGeometry x="690" y="252" width="80" height="112" as="geometry"/>
                </mxCell>
                <mxCell id="ji0iTJspGumRDFQtUEsR-0" value="user id&lt;br&gt;username&lt;br&gt;password&lt;br&gt;first_name&lt;br&gt;last_name&lt;br&gt;email&lt;br&gt;address&lt;br&gt;city&lt;br&gt;postcode&lt;br&gt;country&lt;br&gt;birthdate&lt;br&gt;status&lt;br&gt;role" style="ellipse;whiteSpace=wrap;html=1;align=center;" parent="dq8DGMU5Pl0ecyv3gSid-1" vertex="1">
                    <mxGeometry x="248" y="110" width="94" height="212" as="geometry"/>
                </mxCell>
                <mxCell id="pI6Pshs19TpsM1zlZTKm-0" style="rounded=0;orthogonalLoop=1;jettySize=auto;html=1;exitX=1;exitY=1;exitDx=0;exitDy=0;entryX=0.5;entryY=0;entryDx=0;entryDy=0;dashed=1;endArrow=none;endFill=0;" parent="dq8DGMU5Pl0ecyv3gSid-1" source="fPm6VRqDWA3776kpB-sm-0" target="m-AgLVFVCp_2s4KZoXLv-13" edge="1">
                    <mxGeometry relative="1" as="geometry"/>
                </mxCell>
                <mxCell id="fPm6VRqDWA3776kpB-sm-0" value="cart id&lt;br&gt;user id" style="ellipse;whiteSpace=wrap;html=1;align=center;" parent="dq8DGMU5Pl0ecyv3gSid-1" vertex="1">
                    <mxGeometry x="10" y="550" width="80" height="92" as="geometry"/>
                </mxCell>
            </root>
        </mxGraphModel>
    </diagram>
    <diagram id="xDxGKOoR4Z2vUHc1FM2X" name="2b_ERD">
        <mxGraphModel dx="1277" dy="573" grid="1" gridSize="10" guides="1" tooltips="1" connect="1" arrows="1" fold="1" page="1" pageScale="1" pageWidth="827" pageHeight="1169" math="0" shadow="0">
            <root>
                <mxCell id="Ti6EWdInOymLPx0w6rkZ-0"/>
                <mxCell id="Ti6EWdInOymLPx0w6rkZ-1" parent="Ti6EWdInOymLPx0w6rkZ-0"/>
                <mxCell id="ufoBiiX7qNO6S8f90iBm-0" value="E-Commerce Site &lt;span style=&quot;font-weight: 700&quot;&gt;ERD&lt;/span&gt;" style="rounded=1;whiteSpace=wrap;html=1;fontSize=20;" parent="Ti6EWdInOymLPx0w6rkZ-1" vertex="1">
                    <mxGeometry x="300" y="30" width="200" height="60" as="geometry"/>
                </mxCell>
                <mxCell id="qbdC8_lOuGa1TUKasPwK-3" style="edgeStyle=orthogonalEdgeStyle;rounded=0;orthogonalLoop=1;jettySize=auto;html=1;entryX=0.25;entryY=0;entryDx=0;entryDy=0;startArrow=ERzeroToMany;startFill=1;endArrow=ERmandOne;endFill=0;strokeWidth=1;exitX=0.5;exitY=1;exitDx=0;exitDy=0;endSize=8;startSize=8;" parent="Ti6EWdInOymLPx0w6rkZ-1" source="KXjO-48vFFWP-c2tjgxl-1" target="ufoBiiX7qNO6S8f90iBm-3" edge="1">
                    <mxGeometry relative="1" as="geometry">
                        <mxPoint x="460" y="490" as="sourcePoint"/>
                    </mxGeometry>
                </mxCell>
                <mxCell id="lbd_f7pP81XGDs1hu8UN-2" value="writes" style="edgeLabel;html=1;align=center;verticalAlign=middle;resizable=0;points=[];fontSize=14;fontColor=#808080;" parent="qbdC8_lOuGa1TUKasPwK-3" vertex="1" connectable="0">
                    <mxGeometry x="-0.0633" y="1" relative="1" as="geometry">
                        <mxPoint as="offset"/>
                    </mxGeometry>
                </mxCell>
                <mxCell id="qbdC8_lOuGa1TUKasPwK-11" style="edgeStyle=orthogonalEdgeStyle;rounded=0;orthogonalLoop=1;jettySize=auto;html=1;exitX=0.5;exitY=1;exitDx=0;exitDy=0;startArrow=ERzeroToMany;startFill=1;startSize=8;endArrow=ERmandOne;endFill=0;endSize=8;strokeWidth=1;fontSize=14;entryX=0.5;entryY=0;entryDx=0;entryDy=0;" parent="Ti6EWdInOymLPx0w6rkZ-1" source="qbdC8_lOuGa1TUKasPwK-9" target="ufoBiiX7qNO6S8f90iBm-3" edge="1">
                    <mxGeometry relative="1" as="geometry">
                        <mxPoint x="460" y="470" as="targetPoint"/>
                    </mxGeometry>
                </mxCell>
                <mxCell id="lbd_f7pP81XGDs1hu8UN-7" value="writes" style="edgeLabel;html=1;align=center;verticalAlign=middle;resizable=0;points=[];fontSize=14;fontColor=#808080;" parent="qbdC8_lOuGa1TUKasPwK-11" vertex="1" connectable="0">
                    <mxGeometry x="-0.119" y="-1" relative="1" as="geometry">
                        <mxPoint as="offset"/>
                    </mxGeometry>
                </mxCell>
                <mxCell id="qbdC8_lOuGa1TUKasPwK-16" style="edgeStyle=orthogonalEdgeStyle;rounded=0;orthogonalLoop=1;jettySize=auto;html=1;exitX=0.5;exitY=0;exitDx=0;exitDy=0;startArrow=ERzeroToMany;startFill=1;startSize=8;endArrow=ERmandOne;endFill=0;endSize=8;strokeWidth=1;fontSize=14;entryX=0.25;entryY=1;entryDx=0;entryDy=0;" parent="Ti6EWdInOymLPx0w6rkZ-1" source="qbdC8_lOuGa1TUKasPwK-14" target="ufoBiiX7qNO6S8f90iBm-3" edge="1">
                    <mxGeometry relative="1" as="geometry">
                        <mxPoint x="270" y="650" as="targetPoint"/>
                    </mxGeometry>
                </mxCell>
                <mxCell id="lbd_f7pP81XGDs1hu8UN-9" value="starts" style="edgeLabel;html=1;align=center;verticalAlign=middle;resizable=0;points=[];fontSize=14;fontColor=#808080;" parent="qbdC8_lOuGa1TUKasPwK-16" vertex="1" connectable="0">
                    <mxGeometry x="0.1193" y="-1" relative="1" as="geometry">
                        <mxPoint as="offset"/>
                    </mxGeometry>
                </mxCell>
                <mxCell id="ufoBiiX7qNO6S8f90iBm-3" value="user" style="rounded=0;whiteSpace=wrap;html=1;fontSize=20;fillColor=#f0a30a;strokeColor=#BD7000;fontColor=#ffffff;" parent="Ti6EWdInOymLPx0w6rkZ-1" vertex="1">
                    <mxGeometry x="354" y="560" width="120" height="60" as="geometry"/>
                </mxCell>
                <mxCell id="qbdC8_lOuGa1TUKasPwK-1" value="&lt;font style=&quot;font-size: 14px&quot; color=&quot;#808080&quot;&gt;has&lt;/font&gt;" style="edgeStyle=orthogonalEdgeStyle;rounded=0;orthogonalLoop=1;jettySize=auto;html=1;exitX=0.5;exitY=0;exitDx=0;exitDy=0;startArrow=ERzeroToMany;startFill=1;endArrow=ERmandOne;endFill=0;strokeWidth=1;entryX=0.25;entryY=1;entryDx=0;entryDy=0;endSize=8;startSize=8;" parent="Ti6EWdInOymLPx0w6rkZ-1" source="KXjO-48vFFWP-c2tjgxl-1" target="ufoBiiX7qNO6S8f90iBm-8" edge="1">
                    <mxGeometry x="0.0653" relative="1" as="geometry">
                        <mxPoint x="270" y="340" as="targetPoint"/>
                        <mxPoint as="offset"/>
                    </mxGeometry>
                </mxCell>
                <mxCell id="ufoBiiX7qNO6S8f90iBm-8" value="product" style="rounded=0;whiteSpace=wrap;html=1;fontSize=20;fillColor=#6d8764;strokeColor=#3A5431;fontColor=#ffffff;" parent="Ti6EWdInOymLPx0w6rkZ-1" vertex="1">
                    <mxGeometry x="354" y="240" width="120" height="60" as="geometry"/>
                </mxCell>
                <mxCell id="ufoBiiX7qNO6S8f90iBm-35" value="purchase" style="rounded=0;whiteSpace=wrap;html=1;fontSize=20;fillColor=#76608a;strokeColor=#432D57;fontColor=#ffffff;" parent="Ti6EWdInOymLPx0w6rkZ-1" vertex="1">
                    <mxGeometry x="680" y="560" width="120" height="60" as="geometry"/>
                </mxCell>
                <mxCell id="gRdYTrksl6RZhJ6zo5sg-1" value="review" style="rounded=0;whiteSpace=wrap;html=1;fontSize=20;fillColor=#a0522d;strokeColor=#6D1F00;fontColor=#ffffff;" parent="Ti6EWdInOymLPx0w6rkZ-1" vertex="1">
                    <mxGeometry x="530" y="380" width="120" height="60" as="geometry"/>
                </mxCell>
                <mxCell id="nDC8KnzpHBKd3ZO32r49-1" value="cart_item" style="rounded=0;whiteSpace=wrap;html=1;fontSize=20;fillColor=#76608a;strokeColor=#432D57;fontColor=#ffffff;" parent="Ti6EWdInOymLPx0w6rkZ-1" vertex="1">
                    <mxGeometry x="10" y="380" width="120" height="60" as="geometry"/>
                </mxCell>
                <mxCell id="nDC8KnzpHBKd3ZO32r49-2" value="purchase&lt;br&gt;_item" style="rounded=0;whiteSpace=wrap;html=1;fontSize=20;fillColor=#76608a;strokeColor=#432D57;fontColor=#ffffff;" parent="Ti6EWdInOymLPx0w6rkZ-1" vertex="1">
                    <mxGeometry x="680" y="380" width="120" height="60" as="geometry"/>
                </mxCell>
                <mxCell id="qbdC8_lOuGa1TUKasPwK-10" style="edgeStyle=orthogonalEdgeStyle;rounded=0;orthogonalLoop=1;jettySize=auto;html=1;exitX=0;exitY=0.5;exitDx=0;exitDy=0;startArrow=ERzeroToMany;startFill=1;startSize=8;endArrow=ERmandOne;endFill=0;endSize=8;strokeWidth=1;fontSize=14;entryX=1;entryY=0.5;entryDx=0;entryDy=0;" parent="Ti6EWdInOymLPx0w6rkZ-1" source="qbdC8_lOuGa1TUKasPwK-9" target="KXjO-48vFFWP-c2tjgxl-1" edge="1">
                    <mxGeometry relative="1" as="geometry">
                        <mxPoint x="330" y="470" as="targetPoint"/>
                    </mxGeometry>
                </mxCell>
                <mxCell id="lbd_f7pP81XGDs1hu8UN-3" value="has" style="edgeLabel;html=1;align=center;verticalAlign=middle;resizable=0;points=[];fontSize=14;fontColor=#808080;" parent="qbdC8_lOuGa1TUKasPwK-10" vertex="1" connectable="0">
                    <mxGeometry x="0.2014" y="1" relative="1" as="geometry">
                        <mxPoint x="4.33" y="-1" as="offset"/>
                    </mxGeometry>
                </mxCell>
                <mxCell id="KXjO-48vFFWP-c2tjgxl-1" value="question" style="rounded=0;whiteSpace=wrap;html=1;fontSize=20;fillColor=#a0522d;strokeColor=#6D1F00;fontColor=#ffffff;" parent="Ti6EWdInOymLPx0w6rkZ-1" vertex="1">
                    <mxGeometry x="160" y="380" width="120" height="60" as="geometry"/>
                </mxCell>
                <mxCell id="QxvDoAvcnUiRuI7gcBH0-0" style="rounded=0;orthogonalLoop=1;jettySize=auto;html=1;startArrow=ERmandOne;startFill=0;endArrow=ERzeroToMany;endFill=1;fontSize=20;entryX=0;entryY=0.5;entryDx=0;entryDy=0;exitX=1;exitY=0.5;exitDx=0;exitDy=0;strokeWidth=1;endSize=8;startSize=8;edgeStyle=orthogonalEdgeStyle;" parent="Ti6EWdInOymLPx0w6rkZ-1" source="ufoBiiX7qNO6S8f90iBm-3" target="ufoBiiX7qNO6S8f90iBm-35" edge="1">
                    <mxGeometry relative="1" as="geometry">
                        <mxPoint x="580" y="448" as="targetPoint"/>
                        <mxPoint x="479.5" y="448" as="sourcePoint"/>
                    </mxGeometry>
                </mxCell>
                <mxCell id="lbd_f7pP81XGDs1hu8UN-13" value="makes" style="edgeLabel;html=1;align=center;verticalAlign=middle;resizable=0;points=[];fontSize=14;fontColor=#808080;" parent="QxvDoAvcnUiRuI7gcBH0-0" vertex="1" connectable="0">
                    <mxGeometry x="-0.0915" y="1" relative="1" as="geometry">
                        <mxPoint as="offset"/>
                    </mxGeometry>
                </mxCell>
                <mxCell id="EDPAm4qRW6wYML_AO2z7-0" style="rounded=0;orthogonalLoop=1;jettySize=auto;html=1;exitX=0.5;exitY=1;exitDx=0;exitDy=0;entryX=0;entryY=0.5;entryDx=0;entryDy=0;startArrow=ERoneToMany;startFill=0;startSize=8;endArrow=ERmandOne;endFill=0;endSize=8;strokeWidth=1;edgeStyle=orthogonalEdgeStyle;" parent="Ti6EWdInOymLPx0w6rkZ-1" source="nDC8KnzpHBKd3ZO32r49-1" target="ufoBiiX7qNO6S8f90iBm-3" edge="1">
                    <mxGeometry relative="1" as="geometry">
                        <mxPoint x="45.99999999999977" y="171" as="sourcePoint"/>
                        <mxPoint x="70" y="560" as="targetPoint"/>
                    </mxGeometry>
                </mxCell>
                <mxCell id="lbd_f7pP81XGDs1hu8UN-5" value="adds" style="edgeLabel;html=1;align=center;verticalAlign=middle;resizable=0;points=[];fontSize=14;fontColor=#808080;" parent="EDPAm4qRW6wYML_AO2z7-0" vertex="1" connectable="0">
                    <mxGeometry x="-0.2714" y="2" relative="1" as="geometry">
                        <mxPoint x="152.35" y="1.94" as="offset"/>
                    </mxGeometry>
                </mxCell>
                <mxCell id="oR-F_O05YYAtO31uGyr2-0" style="rounded=0;orthogonalLoop=1;jettySize=auto;html=1;exitX=0.5;exitY=0;exitDx=0;exitDy=0;entryX=0.5;entryY=1;entryDx=0;entryDy=0;startArrow=ERmandOne;startFill=0;endArrow=ERoneToMany;endFill=0;fontSize=20;endSize=8;startSize=8;edgeStyle=orthogonalEdgeStyle;" parent="Ti6EWdInOymLPx0w6rkZ-1" source="ufoBiiX7qNO6S8f90iBm-35" target="nDC8KnzpHBKd3ZO32r49-2" edge="1">
                    <mxGeometry relative="1" as="geometry">
                        <mxPoint x="732" y="369.9999999999998" as="sourcePoint"/>
                        <mxPoint x="728.5" y="145" as="targetPoint"/>
                    </mxGeometry>
                </mxCell>
                <mxCell id="lbd_f7pP81XGDs1hu8UN-6" value="contains" style="edgeLabel;html=1;align=center;verticalAlign=middle;resizable=0;points=[];fontSize=14;fontColor=#808080;" parent="oR-F_O05YYAtO31uGyr2-0" vertex="1" connectable="0">
                    <mxGeometry x="0.1286" y="-1" relative="1" as="geometry">
                        <mxPoint as="offset"/>
                    </mxGeometry>
                </mxCell>
                <mxCell id="NpkqSgl9-TI6uBjqgVOq-0" style="edgeStyle=orthogonalEdgeStyle;rounded=0;orthogonalLoop=1;jettySize=auto;html=1;exitX=0.5;exitY=0;exitDx=0;exitDy=0;entryX=0;entryY=0.5;entryDx=0;entryDy=0;startSize=8;endSize=8;strokeWidth=1;endArrow=ERmandOne;endFill=0;startArrow=ERzeroToMany;startFill=1;" parent="Ti6EWdInOymLPx0w6rkZ-1" source="nDC8KnzpHBKd3ZO32r49-1" target="ufoBiiX7qNO6S8f90iBm-8" edge="1">
                    <mxGeometry relative="1" as="geometry">
                        <mxPoint x="199.49999999999977" y="145" as="sourcePoint"/>
                        <mxPoint x="250" y="145" as="targetPoint"/>
                    </mxGeometry>
                </mxCell>
                <mxCell id="lbd_f7pP81XGDs1hu8UN-4" value="is in" style="edgeLabel;html=1;align=center;verticalAlign=middle;resizable=0;points=[];fontSize=14;fontColor=#808080;" parent="NpkqSgl9-TI6uBjqgVOq-0" vertex="1" connectable="0">
                    <mxGeometry x="0.0449" y="2" relative="1" as="geometry">
                        <mxPoint as="offset"/>
                    </mxGeometry>
                </mxCell>
                <mxCell id="qbdC8_lOuGa1TUKasPwK-0" style="rounded=0;orthogonalLoop=1;jettySize=auto;html=1;startArrow=ERmandOne;startFill=0;endArrow=ERzeroToMany;endFill=1;fontSize=20;exitX=1;exitY=0.5;exitDx=0;exitDy=0;endSize=8;startSize=8;edgeStyle=orthogonalEdgeStyle;" parent="Ti6EWdInOymLPx0w6rkZ-1" source="ufoBiiX7qNO6S8f90iBm-8" target="nDC8KnzpHBKd3ZO32r49-2" edge="1">
                    <mxGeometry relative="1" as="geometry">
                        <mxPoint x="393" y="145" as="sourcePoint"/>
                        <mxPoint x="583.5" y="145" as="targetPoint"/>
                    </mxGeometry>
                </mxCell>
                <mxCell id="qbdC8_lOuGa1TUKasPwK-2" style="edgeStyle=orthogonalEdgeStyle;rounded=0;orthogonalLoop=1;jettySize=auto;html=1;exitX=0.5;exitY=0;exitDx=0;exitDy=0;startArrow=ERzeroToMany;startFill=1;endArrow=ERmandOne;endFill=0;strokeWidth=1;entryX=0.75;entryY=1;entryDx=0;entryDy=0;endSize=8;startSize=8;" parent="Ti6EWdInOymLPx0w6rkZ-1" source="gRdYTrksl6RZhJ6zo5sg-1" target="ufoBiiX7qNO6S8f90iBm-8" edge="1">
                    <mxGeometry relative="1" as="geometry">
                        <mxPoint x="394" y="310" as="targetPoint"/>
                        <mxPoint x="320" y="390" as="sourcePoint"/>
                    </mxGeometry>
                </mxCell>
                <mxCell id="lbd_f7pP81XGDs1hu8UN-14" value="has" style="edgeLabel;html=1;align=center;verticalAlign=middle;resizable=0;points=[];fontSize=14;fontColor=#808080;" parent="qbdC8_lOuGa1TUKasPwK-2" vertex="1" connectable="0">
                    <mxGeometry x="0.1239" y="-1" relative="1" as="geometry">
                        <mxPoint as="offset"/>
                    </mxGeometry>
                </mxCell>
                <mxCell id="qbdC8_lOuGa1TUKasPwK-4" style="edgeStyle=orthogonalEdgeStyle;rounded=0;orthogonalLoop=1;jettySize=auto;html=1;entryX=0.75;entryY=0;entryDx=0;entryDy=0;startArrow=ERzeroToMany;startFill=1;endArrow=ERmandOne;endFill=0;strokeWidth=1;exitX=0.5;exitY=1;exitDx=0;exitDy=0;endSize=8;startSize=8;" parent="Ti6EWdInOymLPx0w6rkZ-1" source="gRdYTrksl6RZhJ6zo5sg-1" target="ufoBiiX7qNO6S8f90iBm-3" edge="1">
                    <mxGeometry relative="1" as="geometry">
                        <mxPoint x="320" y="450" as="sourcePoint"/>
                        <mxPoint x="394" y="570" as="targetPoint"/>
                    </mxGeometry>
                </mxCell>
                <mxCell id="lbd_f7pP81XGDs1hu8UN-8" value="writes" style="edgeLabel;html=1;align=center;verticalAlign=middle;resizable=0;points=[];fontSize=14;fontColor=#808080;" parent="qbdC8_lOuGa1TUKasPwK-4" vertex="1" connectable="0">
                    <mxGeometry x="0.0668" y="1" relative="1" as="geometry">
                        <mxPoint as="offset"/>
                    </mxGeometry>
                </mxCell>
                <mxCell id="qbdC8_lOuGa1TUKasPwK-9" value="answer" style="rounded=0;whiteSpace=wrap;html=1;fontSize=20;fillColor=#a0522d;strokeColor=#6D1F00;fontColor=#ffffff;" parent="Ti6EWdInOymLPx0w6rkZ-1" vertex="1">
                    <mxGeometry x="354" y="380" width="120" height="60" as="geometry"/>
                </mxCell>
                <mxCell id="qbdC8_lOuGa1TUKasPwK-12" value="&lt;b&gt;Order to create tables:&lt;/b&gt;&lt;br&gt;&lt;ol&gt;&lt;li&gt;user, product&lt;/li&gt;&lt;li&gt;purchase, cart_item&lt;/li&gt;&lt;li&gt;purchase_item, question, review&lt;/li&gt;&lt;li&gt;answer&lt;/li&gt;&lt;li&gt;&lt;font color=&quot;#9c9c9c&quot;&gt;&lt;span&gt;optional: chat&lt;/span&gt;&lt;br&gt;&lt;/font&gt;&lt;/li&gt;&lt;li&gt;&lt;span&gt;&lt;font color=&quot;#9c9c9c&quot;&gt;optional: chat_message&lt;/font&gt;&lt;/span&gt;&lt;/li&gt;&lt;/ol&gt;" style="text;html=1;strokeColor=none;fillColor=none;align=left;verticalAlign=middle;whiteSpace=wrap;rounded=0;fontSize=14;" parent="Ti6EWdInOymLPx0w6rkZ-1" vertex="1">
                    <mxGeometry x="40" y="70" width="300" height="170" as="geometry"/>
                </mxCell>
                <mxCell id="qbdC8_lOuGa1TUKasPwK-17" style="edgeStyle=orthogonalEdgeStyle;rounded=0;orthogonalLoop=1;jettySize=auto;html=1;exitX=0;exitY=0.5;exitDx=0;exitDy=0;startArrow=ERoneToMany;startFill=0;startSize=8;endArrow=ERmandOne;endFill=0;endSize=8;strokeWidth=1;fontSize=14;entryX=1;entryY=0.5;entryDx=0;entryDy=0;" parent="Ti6EWdInOymLPx0w6rkZ-1" source="qbdC8_lOuGa1TUKasPwK-15" target="qbdC8_lOuGa1TUKasPwK-14" edge="1">
                    <mxGeometry relative="1" as="geometry">
                        <mxPoint x="430" y="729" as="targetPoint"/>
                    </mxGeometry>
                </mxCell>
                <mxCell id="lbd_f7pP81XGDs1hu8UN-11" value="has" style="edgeLabel;html=1;align=center;verticalAlign=middle;resizable=0;points=[];fontSize=14;fontColor=#808080;" parent="qbdC8_lOuGa1TUKasPwK-17" vertex="1" connectable="0">
                    <mxGeometry x="0.1463" y="1" relative="1" as="geometry">
                        <mxPoint as="offset"/>
                    </mxGeometry>
                </mxCell>
                <mxCell id="qbdC8_lOuGa1TUKasPwK-14" value="chat" style="rounded=0;whiteSpace=wrap;html=1;fontSize=20;strokeColor=#6D1F00;fontColor=#ffffff;fillColor=#A07758;" parent="Ti6EWdInOymLPx0w6rkZ-1" vertex="1">
                    <mxGeometry x="250" y="699" width="120" height="60" as="geometry"/>
                </mxCell>
                <mxCell id="qbdC8_lOuGa1TUKasPwK-18" style="edgeStyle=orthogonalEdgeStyle;rounded=0;orthogonalLoop=1;jettySize=auto;html=1;exitX=0.5;exitY=0;exitDx=0;exitDy=0;startArrow=ERzeroToMany;startFill=1;startSize=8;endArrow=ERone;endFill=0;endSize=8;strokeWidth=1;fontSize=14;entryX=0.75;entryY=1;entryDx=0;entryDy=0;" parent="Ti6EWdInOymLPx0w6rkZ-1" source="qbdC8_lOuGa1TUKasPwK-15" target="ufoBiiX7qNO6S8f90iBm-3" edge="1">
                    <mxGeometry relative="1" as="geometry">
                        <mxPoint x="520" y="620" as="targetPoint"/>
                    </mxGeometry>
                </mxCell>
                <mxCell id="lbd_f7pP81XGDs1hu8UN-12" value="writes" style="edgeLabel;html=1;align=center;verticalAlign=middle;resizable=0;points=[];fontSize=14;fontColor=#808080;" parent="qbdC8_lOuGa1TUKasPwK-18" vertex="1" connectable="0">
                    <mxGeometry x="-0.1145" y="-1" relative="1" as="geometry">
                        <mxPoint as="offset"/>
                    </mxGeometry>
                </mxCell>
                <mxCell id="qbdC8_lOuGa1TUKasPwK-15" value="message" style="rounded=0;whiteSpace=wrap;html=1;fontSize=20;strokeColor=#6D1F00;fontColor=#ffffff;fillColor=#A07758;" parent="Ti6EWdInOymLPx0w6rkZ-1" vertex="1">
                    <mxGeometry x="454" y="699" width="120" height="60" as="geometry"/>
                </mxCell>
            </root>
        </mxGraphModel>
    </diagram>
    <diagram id="0xVNbpOeulXiJ_k-NW8j" name="3_UML">
        <mxGraphModel dx="1277" dy="573" grid="1" gridSize="10" guides="1" tooltips="1" connect="1" arrows="1" fold="1" page="1" pageScale="1" pageWidth="827" pageHeight="1169" math="0" shadow="0">
            <root>
                <mxCell id="YNhbEBSxachPlGZMgap4-0"/>
                <mxCell id="YNhbEBSxachPlGZMgap4-1" parent="YNhbEBSxachPlGZMgap4-0"/>
                <mxCell id="YNhbEBSxachPlGZMgap4-2" value="user" style="swimlane;fontStyle=0;childLayout=stackLayout;horizontal=1;startSize=26;horizontalStack=0;resizeParent=1;resizeParentMax=0;resizeLast=0;collapsible=1;marginBottom=0;fontSize=20;fillColor=#f0a30a;strokeColor=#BD7000;fontColor=#ffffff;" parent="YNhbEBSxachPlGZMgap4-1" vertex="1">
                    <mxGeometry x="237.25" y="738" width="172.75" height="390" as="geometry"/>
                </mxCell>
                <mxCell id="YNhbEBSxachPlGZMgap4-3" value="pk_user_id int" style="text;strokeColor=none;fillColor=none;align=left;verticalAlign=top;spacingLeft=4;spacingRight=4;overflow=hidden;rotatable=0;points=[[0,0.5],[1,0.5]];portConstraint=eastwest;fontStyle=4" parent="YNhbEBSxachPlGZMgap4-2" vertex="1">
                    <mxGeometry y="26" width="172.75" height="26" as="geometry"/>
                </mxCell>
                <mxCell id="YNhbEBSxachPlGZMgap4-9" value="email varchar" style="text;strokeColor=none;fillColor=none;align=left;verticalAlign=top;spacingLeft=4;spacingRight=4;overflow=hidden;rotatable=0;points=[[0,0.5],[1,0.5]];portConstraint=eastwest;" parent="YNhbEBSxachPlGZMgap4-2" vertex="1">
                    <mxGeometry y="52" width="172.75" height="26" as="geometry"/>
                </mxCell>
                <mxCell id="YNhbEBSxachPlGZMgap4-5" value="password varchar" style="text;strokeColor=none;fillColor=none;align=left;verticalAlign=top;spacingLeft=4;spacingRight=4;overflow=hidden;rotatable=0;points=[[0,0.5],[1,0.5]];portConstraint=eastwest;" parent="YNhbEBSxachPlGZMgap4-2" vertex="1">
                    <mxGeometry y="78" width="172.75" height="26" as="geometry"/>
                </mxCell>
                <mxCell id="YNhbEBSxachPlGZMgap4-6" value="first_name varchar" style="text;strokeColor=none;fillColor=none;align=left;verticalAlign=top;spacingLeft=4;spacingRight=4;overflow=hidden;rotatable=0;points=[[0,0.5],[1,0.5]];portConstraint=eastwest;" parent="YNhbEBSxachPlGZMgap4-2" vertex="1">
                    <mxGeometry y="104" width="172.75" height="26" as="geometry"/>
                </mxCell>
                <mxCell id="YNhbEBSxachPlGZMgap4-7" value="last_name varchar" style="text;strokeColor=none;fillColor=none;align=left;verticalAlign=top;spacingLeft=4;spacingRight=4;overflow=hidden;rotatable=0;points=[[0,0.5],[1,0.5]];portConstraint=eastwest;" parent="YNhbEBSxachPlGZMgap4-2" vertex="1">
                    <mxGeometry y="130" width="172.75" height="26" as="geometry"/>
                </mxCell>
                <mxCell id="YNhbEBSxachPlGZMgap4-13" value="address varchar" style="text;strokeColor=none;fillColor=none;align=left;verticalAlign=top;spacingLeft=4;spacingRight=4;overflow=hidden;rotatable=0;points=[[0,0.5],[1,0.5]];portConstraint=eastwest;" parent="YNhbEBSxachPlGZMgap4-2" vertex="1">
                    <mxGeometry y="156" width="172.75" height="26" as="geometry"/>
                </mxCell>
                <mxCell id="YNhbEBSxachPlGZMgap4-15" value="postcode varchar" style="text;strokeColor=none;fillColor=none;align=left;verticalAlign=top;spacingLeft=4;spacingRight=4;overflow=hidden;rotatable=0;points=[[0,0.5],[1,0.5]];portConstraint=eastwest;" parent="YNhbEBSxachPlGZMgap4-2" vertex="1">
                    <mxGeometry y="182" width="172.75" height="26" as="geometry"/>
                </mxCell>
                <mxCell id="YNhbEBSxachPlGZMgap4-16" value="city varchar" style="text;strokeColor=none;fillColor=none;align=left;verticalAlign=top;spacingLeft=4;spacingRight=4;overflow=hidden;rotatable=0;points=[[0,0.5],[1,0.5]];portConstraint=eastwest;" parent="YNhbEBSxachPlGZMgap4-2" vertex="1">
                    <mxGeometry y="208" width="172.75" height="26" as="geometry"/>
                </mxCell>
                <mxCell id="YNhbEBSxachPlGZMgap4-17" value="country varchar" style="text;strokeColor=none;fillColor=none;align=left;verticalAlign=top;spacingLeft=4;spacingRight=4;overflow=hidden;rotatable=0;points=[[0,0.5],[1,0.5]];portConstraint=eastwest;" parent="YNhbEBSxachPlGZMgap4-2" vertex="1">
                    <mxGeometry y="234" width="172.75" height="26" as="geometry"/>
                </mxCell>
                <mxCell id="YNhbEBSxachPlGZMgap4-8" value="birthdate date" style="text;strokeColor=none;fillColor=none;align=left;verticalAlign=top;spacingLeft=4;spacingRight=4;overflow=hidden;rotatable=0;points=[[0,0.5],[1,0.5]];portConstraint=eastwest;" parent="YNhbEBSxachPlGZMgap4-2" vertex="1">
                    <mxGeometry y="260" width="172.75" height="26" as="geometry"/>
                </mxCell>
                <mxCell id="cHjM6ibUncOLDaH94VuM-10" value="status enum('active', 'banned')" style="text;strokeColor=none;fillColor=none;align=left;verticalAlign=top;spacingLeft=4;spacingRight=4;overflow=hidden;rotatable=0;points=[[0,0.5],[1,0.5]];portConstraint=eastwest;" parent="YNhbEBSxachPlGZMgap4-2" vertex="1">
                    <mxGeometry y="286" width="172.75" height="26" as="geometry"/>
                </mxCell>
                <mxCell id="oR0_Jo_8P0Ye777R3NVN-0" value="role enum('user', 'admin')" style="text;strokeColor=none;fillColor=none;align=left;verticalAlign=top;spacingLeft=4;spacingRight=4;overflow=hidden;rotatable=0;points=[[0,0.5],[1,0.5]];portConstraint=eastwest;" parent="YNhbEBSxachPlGZMgap4-2" vertex="1">
                    <mxGeometry y="312" width="172.75" height="26" as="geometry"/>
                </mxCell>
                <mxCell id="FyzprK_EUzZUyvUEk8gq-15" value="profile_image varchar" style="text;strokeColor=none;fillColor=none;align=left;verticalAlign=top;spacingLeft=4;spacingRight=4;overflow=hidden;rotatable=0;points=[[0,0.5],[1,0.5]];portConstraint=eastwest;fontColor=#808080;" parent="YNhbEBSxachPlGZMgap4-2" vertex="1">
                    <mxGeometry y="338" width="172.75" height="26" as="geometry"/>
                </mxCell>
                <mxCell id="FyzprK_EUzZUyvUEk8gq-16" value="banned_until datetime" style="text;strokeColor=none;fillColor=none;align=left;verticalAlign=top;spacingLeft=4;spacingRight=4;overflow=hidden;rotatable=0;points=[[0,0.5],[1,0.5]];portConstraint=eastwest;fontColor=#808080;" parent="YNhbEBSxachPlGZMgap4-2" vertex="1">
                    <mxGeometry y="364" width="172.75" height="26" as="geometry"/>
                </mxCell>
                <mxCell id="YNhbEBSxachPlGZMgap4-105" value="E-Commerce Site &lt;span style=&quot;font-weight: 700&quot;&gt;UML&lt;/span&gt;" style="rounded=1;whiteSpace=wrap;html=1;fontSize=20;" parent="YNhbEBSxachPlGZMgap4-1" vertex="1">
                    <mxGeometry x="307" y="30" width="200" height="60" as="geometry"/>
                </mxCell>
                <mxCell id="cHjM6ibUncOLDaH94VuM-30" value="product" style="swimlane;fontStyle=0;childLayout=stackLayout;horizontal=1;startSize=26;fillColor=#6d8764;horizontalStack=0;resizeParent=1;resizeParentMax=0;resizeLast=0;collapsible=1;marginBottom=0;fontSize=20;strokeColor=#3A5431;fontColor=#ffffff;" parent="YNhbEBSxachPlGZMgap4-1" vertex="1">
                    <mxGeometry x="280.25" y="132" width="180" height="234" as="geometry"/>
                </mxCell>
                <mxCell id="cHjM6ibUncOLDaH94VuM-31" value="pk_product_id int" style="text;strokeColor=none;fillColor=none;align=left;verticalAlign=top;spacingLeft=4;spacingRight=4;overflow=hidden;rotatable=0;points=[[0,0.5],[1,0.5]];portConstraint=eastwest;fontStyle=4" parent="cHjM6ibUncOLDaH94VuM-30" vertex="1">
                    <mxGeometry y="26" width="180" height="26" as="geometry"/>
                </mxCell>
                <mxCell id="cHjM6ibUncOLDaH94VuM-32" value="name varchar" style="text;strokeColor=none;fillColor=none;align=left;verticalAlign=top;spacingLeft=4;spacingRight=4;overflow=hidden;rotatable=0;points=[[0,0.5],[1,0.5]];portConstraint=eastwest;" parent="cHjM6ibUncOLDaH94VuM-30" vertex="1">
                    <mxGeometry y="52" width="180" height="26" as="geometry"/>
                </mxCell>
                <mxCell id="cHjM6ibUncOLDaH94VuM-34" value="description text" style="text;strokeColor=none;fillColor=none;align=left;verticalAlign=top;spacingLeft=4;spacingRight=4;overflow=hidden;rotatable=0;points=[[0,0.5],[1,0.5]];portConstraint=eastwest;" parent="cHjM6ibUncOLDaH94VuM-30" vertex="1">
                    <mxGeometry y="78" width="180" height="26" as="geometry"/>
                </mxCell>
                <mxCell id="cHjM6ibUncOLDaH94VuM-35" value="image text" style="text;strokeColor=none;fillColor=none;align=left;verticalAlign=top;spacingLeft=4;spacingRight=4;overflow=hidden;rotatable=0;points=[[0,0.5],[1,0.5]];portConstraint=eastwest;" parent="cHjM6ibUncOLDaH94VuM-30" vertex="1">
                    <mxGeometry y="104" width="180" height="26" as="geometry"/>
                </mxCell>
                <mxCell id="cHjM6ibUncOLDaH94VuM-37" value="price decimal" style="text;strokeColor=none;fillColor=none;align=left;verticalAlign=top;spacingLeft=4;spacingRight=4;overflow=hidden;rotatable=0;points=[[0,0.5],[1,0.5]];portConstraint=eastwest;" parent="cHjM6ibUncOLDaH94VuM-30" vertex="1">
                    <mxGeometry y="130" width="180" height="26" as="geometry"/>
                </mxCell>
                <mxCell id="cHjM6ibUncOLDaH94VuM-33" value="product_category_id int" style="text;strokeColor=none;fillColor=none;align=left;verticalAlign=top;spacingLeft=4;spacingRight=4;overflow=hidden;rotatable=0;points=[[0,0.5],[1,0.5]];portConstraint=eastwest;" parent="cHjM6ibUncOLDaH94VuM-30" vertex="1">
                    <mxGeometry y="156" width="180" height="26" as="geometry"/>
                </mxCell>
                <mxCell id="HIAU0K26um2KObqTK2ae-1" value="status enum('active', 'deactive')" style="text;strokeColor=none;fillColor=none;align=left;verticalAlign=top;spacingLeft=4;spacingRight=4;overflow=hidden;rotatable=0;points=[[0,0.5],[1,0.5]];portConstraint=eastwest;" parent="cHjM6ibUncOLDaH94VuM-30" vertex="1">
                    <mxGeometry y="182" width="180" height="26" as="geometry"/>
                </mxCell>
                <mxCell id="FyzprK_EUzZUyvUEk8gq-0" value="discount enum('10%',...)" style="text;strokeColor=none;fillColor=none;align=left;verticalAlign=top;spacingLeft=4;spacingRight=4;overflow=hidden;rotatable=0;points=[[0,0.5],[1,0.5]];portConstraint=eastwest;" parent="cHjM6ibUncOLDaH94VuM-30" vertex="1">
                    <mxGeometry y="208" width="180" height="26" as="geometry"/>
                </mxCell>
                <mxCell id="cHjM6ibUncOLDaH94VuM-39" value="purchase" style="swimlane;fontStyle=0;childLayout=stackLayout;horizontal=1;startSize=26;fillColor=#76608a;horizontalStack=0;resizeParent=1;resizeParentMax=0;resizeLast=0;collapsible=1;marginBottom=0;fontSize=20;strokeColor=#432D57;fontColor=#ffffff;" parent="YNhbEBSxachPlGZMgap4-1" vertex="1">
                    <mxGeometry x="545.62" y="686" width="238" height="104" as="geometry"/>
                </mxCell>
                <mxCell id="cHjM6ibUncOLDaH94VuM-40" value="pk_purchase_id int" style="text;strokeColor=none;fillColor=none;align=left;verticalAlign=top;spacingLeft=4;spacingRight=4;overflow=hidden;rotatable=0;points=[[0,0.5],[1,0.5]];portConstraint=eastwest;fontStyle=4" parent="cHjM6ibUncOLDaH94VuM-39" vertex="1">
                    <mxGeometry y="26" width="238" height="26" as="geometry"/>
                </mxCell>
                <mxCell id="cHjM6ibUncOLDaH94VuM-41" value="create_datetime datetime" style="text;strokeColor=none;fillColor=none;align=left;verticalAlign=top;spacingLeft=4;spacingRight=4;overflow=hidden;rotatable=0;points=[[0,0.5],[1,0.5]];portConstraint=eastwest;" parent="cHjM6ibUncOLDaH94VuM-39" vertex="1">
                    <mxGeometry y="52" width="238" height="26" as="geometry"/>
                </mxCell>
                <mxCell id="cHjM6ibUncOLDaH94VuM-44" value="fk_user_id int" style="text;strokeColor=none;fillColor=none;align=left;verticalAlign=top;spacingLeft=4;spacingRight=4;overflow=hidden;rotatable=0;points=[[0,0.5],[1,0.5]];portConstraint=eastwest;" parent="cHjM6ibUncOLDaH94VuM-39" vertex="1">
                    <mxGeometry y="78" width="238" height="26" as="geometry"/>
                </mxCell>
                <mxCell id="cHjM6ibUncOLDaH94VuM-46" style="rounded=0;orthogonalLoop=1;jettySize=auto;html=1;startArrow=ERmandOne;startFill=0;endArrow=ERzeroToMany;endFill=1;fontSize=20;entryX=0;entryY=0.5;entryDx=0;entryDy=0;exitX=1;exitY=0.5;exitDx=0;exitDy=0;strokeWidth=1;endSize=6;startSize=6;edgeStyle=orthogonalEdgeStyle;" parent="YNhbEBSxachPlGZMgap4-1" source="YNhbEBSxachPlGZMgap4-3" target="cHjM6ibUncOLDaH94VuM-44" edge="1">
                    <mxGeometry relative="1" as="geometry">
                        <mxPoint x="786" y="725" as="targetPoint"/>
                        <mxPoint x="825" y="745" as="sourcePoint"/>
                    </mxGeometry>
                </mxCell>
                <mxCell id="cHjM6ibUncOLDaH94VuM-47" value="purchase_item" style="swimlane;fontStyle=0;childLayout=stackLayout;horizontal=1;startSize=26;fillColor=#76608a;horizontalStack=0;resizeParent=1;resizeParentMax=0;resizeLast=0;collapsible=1;marginBottom=0;fontSize=20;strokeColor=#432D57;fontColor=#ffffff;" parent="YNhbEBSxachPlGZMgap4-1" vertex="1">
                    <mxGeometry x="579.25" y="80" width="170.75" height="130" as="geometry"/>
                </mxCell>
                <mxCell id="cHjM6ibUncOLDaH94VuM-48" value="pk_purchase_item_id int" style="text;strokeColor=none;fillColor=none;align=left;verticalAlign=top;spacingLeft=4;spacingRight=4;overflow=hidden;rotatable=0;points=[[0,0.5],[1,0.5]];portConstraint=eastwest;fontStyle=4" parent="cHjM6ibUncOLDaH94VuM-47" vertex="1">
                    <mxGeometry y="26" width="170.75" height="26" as="geometry"/>
                </mxCell>
                <mxCell id="cHjM6ibUncOLDaH94VuM-49" value="quantity int" style="text;strokeColor=none;fillColor=none;align=left;verticalAlign=top;spacingLeft=4;spacingRight=4;overflow=hidden;rotatable=0;points=[[0,0.5],[1,0.5]];portConstraint=eastwest;" parent="cHjM6ibUncOLDaH94VuM-47" vertex="1">
                    <mxGeometry y="52" width="170.75" height="26" as="geometry"/>
                </mxCell>
                <mxCell id="cHjM6ibUncOLDaH94VuM-51" value="fk_product_id int" style="text;strokeColor=none;fillColor=none;align=left;verticalAlign=top;spacingLeft=4;spacingRight=4;overflow=hidden;rotatable=0;points=[[0,0.5],[1,0.5]];portConstraint=eastwest;" parent="cHjM6ibUncOLDaH94VuM-47" vertex="1">
                    <mxGeometry y="78" width="170.75" height="26" as="geometry"/>
                </mxCell>
                <mxCell id="cHjM6ibUncOLDaH94VuM-50" value="fk_purchase_id int" style="text;strokeColor=none;fillColor=none;align=left;verticalAlign=top;spacingLeft=4;spacingRight=4;overflow=hidden;rotatable=0;points=[[0,0.5],[1,0.5]];portConstraint=eastwest;" parent="cHjM6ibUncOLDaH94VuM-47" vertex="1">
                    <mxGeometry y="104" width="170.75" height="26" as="geometry"/>
                </mxCell>
                <mxCell id="cHjM6ibUncOLDaH94VuM-53" style="rounded=0;orthogonalLoop=1;jettySize=auto;html=1;exitX=1;exitY=0.5;exitDx=0;exitDy=0;entryX=1;entryY=0.5;entryDx=0;entryDy=0;startArrow=ERmandOne;startFill=0;endArrow=ERoneToMany;endFill=0;fontSize=20;endSize=6;startSize=6;edgeStyle=orthogonalEdgeStyle;" parent="YNhbEBSxachPlGZMgap4-1" source="cHjM6ibUncOLDaH94VuM-40" target="cHjM6ibUncOLDaH94VuM-50" edge="1">
                    <mxGeometry relative="1" as="geometry">
                        <Array as="points">
                            <mxPoint x="810" y="725"/>
                            <mxPoint x="810" y="197"/>
                        </Array>
                    </mxGeometry>
                </mxCell>
                <mxCell id="cHjM6ibUncOLDaH94VuM-54" style="rounded=0;orthogonalLoop=1;jettySize=auto;html=1;startArrow=ERmandOne;startFill=0;endArrow=ERzeroToMany;endFill=1;fontSize=20;entryX=0;entryY=0.5;entryDx=0;entryDy=0;exitX=1;exitY=0.5;exitDx=0;exitDy=0;endSize=6;startSize=6;edgeStyle=orthogonalEdgeStyle;" parent="YNhbEBSxachPlGZMgap4-1" source="cHjM6ibUncOLDaH94VuM-31" target="cHjM6ibUncOLDaH94VuM-51" edge="1">
                    <mxGeometry relative="1" as="geometry">
                        <mxPoint x="655.5" y="438" as="sourcePoint"/>
                    </mxGeometry>
                </mxCell>
                <mxCell id="cHjM6ibUncOLDaH94VuM-105" style="edgeStyle=none;rounded=0;orthogonalLoop=1;jettySize=auto;html=1;exitX=0.25;exitY=0;exitDx=0;exitDy=0;startArrow=ERoneToMany;startFill=0;endArrow=ERmandOne;endFill=0;" parent="YNhbEBSxachPlGZMgap4-1" edge="1">
                    <mxGeometry relative="1" as="geometry">
                        <mxPoint x="808.75" y="1091" as="sourcePoint"/>
                        <mxPoint x="808.75" y="1091" as="targetPoint"/>
                    </mxGeometry>
                </mxCell>
                <mxCell id="cHjM6ibUncOLDaH94VuM-114" value="cart_item" style="swimlane;fontStyle=0;childLayout=stackLayout;horizontal=1;startSize=26;fillColor=#76608a;horizontalStack=0;resizeParent=1;resizeParentMax=0;resizeLast=0;collapsible=1;marginBottom=0;fontSize=20;strokeColor=#432D57;fontColor=#ffffff;" parent="YNhbEBSxachPlGZMgap4-1" vertex="1">
                    <mxGeometry x="41.75" y="80" width="125" height="130" as="geometry"/>
                </mxCell>
                <mxCell id="cHjM6ibUncOLDaH94VuM-115" value="pk_cart_item_id int" style="text;strokeColor=none;fillColor=none;align=left;verticalAlign=top;spacingLeft=4;spacingRight=4;overflow=hidden;rotatable=0;points=[[0,0.5],[1,0.5]];portConstraint=eastwest;fontStyle=4" parent="cHjM6ibUncOLDaH94VuM-114" vertex="1">
                    <mxGeometry y="26" width="125" height="26" as="geometry"/>
                </mxCell>
                <mxCell id="cHjM6ibUncOLDaH94VuM-116" value="quantity int" style="text;strokeColor=none;fillColor=none;align=left;verticalAlign=top;spacingLeft=4;spacingRight=4;overflow=hidden;rotatable=0;points=[[0,0.5],[1,0.5]];portConstraint=eastwest;" parent="cHjM6ibUncOLDaH94VuM-114" vertex="1">
                    <mxGeometry y="52" width="125" height="26" as="geometry"/>
                </mxCell>
                <mxCell id="cHjM6ibUncOLDaH94VuM-118" value="fk_product_id int" style="text;strokeColor=none;fillColor=none;align=left;verticalAlign=top;spacingLeft=4;spacingRight=4;overflow=hidden;rotatable=0;points=[[0,0.5],[1,0.5]];portConstraint=eastwest;" parent="cHjM6ibUncOLDaH94VuM-114" vertex="1">
                    <mxGeometry y="78" width="125" height="26" as="geometry"/>
                </mxCell>
                <mxCell id="cHjM6ibUncOLDaH94VuM-117" value="fk_user_id int" style="text;strokeColor=none;fillColor=none;align=left;verticalAlign=top;spacingLeft=4;spacingRight=4;overflow=hidden;rotatable=0;points=[[0,0.5],[1,0.5]];portConstraint=eastwest;" parent="cHjM6ibUncOLDaH94VuM-114" vertex="1">
                    <mxGeometry y="104" width="125" height="26" as="geometry"/>
                </mxCell>
                <mxCell id="cHjM6ibUncOLDaH94VuM-122" style="edgeStyle=orthogonalEdgeStyle;rounded=0;orthogonalLoop=1;jettySize=auto;html=1;exitX=1;exitY=0.5;exitDx=0;exitDy=0;entryX=0;entryY=0.5;entryDx=0;entryDy=0;startSize=6;endSize=6;strokeWidth=1;endArrow=ERmandOne;endFill=0;startArrow=ERzeroToMany;startFill=1;" parent="YNhbEBSxachPlGZMgap4-1" source="cHjM6ibUncOLDaH94VuM-118" target="cHjM6ibUncOLDaH94VuM-31" edge="1">
                    <mxGeometry relative="1" as="geometry"/>
                </mxCell>
                <mxCell id="cHjM6ibUncOLDaH94VuM-123" style="rounded=0;orthogonalLoop=1;jettySize=auto;html=1;exitX=0;exitY=0.5;exitDx=0;exitDy=0;entryX=0;entryY=0.5;entryDx=0;entryDy=0;startArrow=ERzeroToMany;startFill=1;startSize=6;endArrow=ERmandOne;endFill=0;endSize=6;strokeWidth=1;edgeStyle=orthogonalEdgeStyle;" parent="YNhbEBSxachPlGZMgap4-1" source="cHjM6ibUncOLDaH94VuM-117" target="YNhbEBSxachPlGZMgap4-3" edge="1">
                    <mxGeometry relative="1" as="geometry">
                        <Array as="points">
                            <mxPoint x="10" y="197"/>
                            <mxPoint x="10" y="777"/>
                        </Array>
                        <mxPoint x="41.75" y="751" as="targetPoint"/>
                    </mxGeometry>
                </mxCell>
                <mxCell id="W1Nx3ltpK3YNEK72oWIN-0" value="review" style="swimlane;fontStyle=0;childLayout=stackLayout;horizontal=1;startSize=26;fillColor=#a0522d;horizontalStack=0;resizeParent=1;resizeParentMax=0;resizeLast=0;collapsible=1;marginBottom=0;fontSize=20;strokeColor=#6D1F00;fontColor=#ffffff;" parent="YNhbEBSxachPlGZMgap4-1" vertex="1">
                    <mxGeometry x="510" y="430" width="150" height="208" as="geometry"/>
                </mxCell>
                <mxCell id="W1Nx3ltpK3YNEK72oWIN-1" value="pk_review_id int" style="text;strokeColor=none;fillColor=none;align=left;verticalAlign=top;spacingLeft=4;spacingRight=4;overflow=hidden;rotatable=0;points=[[0,0.5],[1,0.5]];portConstraint=eastwest;fontStyle=4" parent="W1Nx3ltpK3YNEK72oWIN-0" vertex="1">
                    <mxGeometry y="26" width="150" height="26" as="geometry"/>
                </mxCell>
                <mxCell id="FyzprK_EUzZUyvUEk8gq-17" value="rating int" style="text;strokeColor=none;fillColor=none;align=left;verticalAlign=top;spacingLeft=4;spacingRight=4;overflow=hidden;rotatable=0;points=[[0,0.5],[1,0.5]];portConstraint=eastwest;" parent="W1Nx3ltpK3YNEK72oWIN-0" vertex="1">
                    <mxGeometry y="52" width="150" height="26" as="geometry"/>
                </mxCell>
                <mxCell id="-ERgkfDB6juSrPFqhkaC-0" value="title varchar" style="text;strokeColor=none;fillColor=none;align=left;verticalAlign=top;spacingLeft=4;spacingRight=4;overflow=hidden;rotatable=0;points=[[0,0.5],[1,0.5]];portConstraint=eastwest;" parent="W1Nx3ltpK3YNEK72oWIN-0" vertex="1">
                    <mxGeometry y="78" width="150" height="26" as="geometry"/>
                </mxCell>
                <mxCell id="FyzprK_EUzZUyvUEk8gq-18" value="comment text" style="text;strokeColor=none;fillColor=none;align=left;verticalAlign=top;spacingLeft=4;spacingRight=4;overflow=hidden;rotatable=0;points=[[0,0.5],[1,0.5]];portConstraint=eastwest;" parent="W1Nx3ltpK3YNEK72oWIN-0" vertex="1">
                    <mxGeometry y="104" width="150" height="26" as="geometry"/>
                </mxCell>
                <mxCell id="rLnGUwImqmgkVUzOifiU-0" value="create_datetime datetime" style="text;strokeColor=none;fillColor=none;align=left;verticalAlign=top;spacingLeft=4;spacingRight=4;overflow=hidden;rotatable=0;points=[[0,0.5],[1,0.5]];portConstraint=eastwest;" parent="W1Nx3ltpK3YNEK72oWIN-0" vertex="1">
                    <mxGeometry y="130" width="150" height="26" as="geometry"/>
                </mxCell>
                <mxCell id="W1Nx3ltpK3YNEK72oWIN-2" value="fk_product_id int" style="text;strokeColor=none;fillColor=none;align=left;verticalAlign=top;spacingLeft=4;spacingRight=4;overflow=hidden;rotatable=0;points=[[0,0.5],[1,0.5]];portConstraint=eastwest;" parent="W1Nx3ltpK3YNEK72oWIN-0" vertex="1">
                    <mxGeometry y="156" width="150" height="26" as="geometry"/>
                </mxCell>
                <mxCell id="FyzprK_EUzZUyvUEk8gq-36" value="fk_user_id int" style="text;strokeColor=none;fillColor=none;align=left;verticalAlign=top;spacingLeft=4;spacingRight=4;overflow=hidden;rotatable=0;points=[[0,0.5],[1,0.5]];portConstraint=eastwest;" parent="W1Nx3ltpK3YNEK72oWIN-0" vertex="1">
                    <mxGeometry y="182" width="150" height="26" as="geometry"/>
                </mxCell>
                <mxCell id="FyzprK_EUzZUyvUEk8gq-19" value="question" style="swimlane;fontStyle=0;childLayout=stackLayout;horizontal=1;startSize=26;fillColor=#a0522d;horizontalStack=0;resizeParent=1;resizeParentMax=0;resizeLast=0;collapsible=1;marginBottom=0;fontSize=20;strokeColor=#6D1F00;fontColor=#ffffff;" parent="YNhbEBSxachPlGZMgap4-1" vertex="1">
                    <mxGeometry x="55" y="482" width="152" height="156" as="geometry"/>
                </mxCell>
                <mxCell id="FyzprK_EUzZUyvUEk8gq-20" value="pk_question_id int" style="text;strokeColor=none;fillColor=none;align=left;verticalAlign=top;spacingLeft=4;spacingRight=4;overflow=hidden;rotatable=0;points=[[0,0.5],[1,0.5]];portConstraint=eastwest;fontStyle=4" parent="FyzprK_EUzZUyvUEk8gq-19" vertex="1">
                    <mxGeometry y="26" width="152" height="26" as="geometry"/>
                </mxCell>
                <mxCell id="FyzprK_EUzZUyvUEk8gq-23" value="question text" style="text;strokeColor=none;fillColor=none;align=left;verticalAlign=top;spacingLeft=4;spacingRight=4;overflow=hidden;rotatable=0;points=[[0,0.5],[1,0.5]];portConstraint=eastwest;" parent="FyzprK_EUzZUyvUEk8gq-19" vertex="1">
                    <mxGeometry y="52" width="152" height="26" as="geometry"/>
                </mxCell>
                <mxCell id="FyzprK_EUzZUyvUEk8gq-30" value="create_datetime datetime" style="text;strokeColor=none;fillColor=none;align=left;verticalAlign=top;spacingLeft=4;spacingRight=4;overflow=hidden;rotatable=0;points=[[0,0.5],[1,0.5]];portConstraint=eastwest;" parent="FyzprK_EUzZUyvUEk8gq-19" vertex="1">
                    <mxGeometry y="78" width="152" height="26" as="geometry"/>
                </mxCell>
                <mxCell id="FyzprK_EUzZUyvUEk8gq-24" value="fk_product_id int" style="text;strokeColor=none;fillColor=none;align=left;verticalAlign=top;spacingLeft=4;spacingRight=4;overflow=hidden;rotatable=0;points=[[0,0.5],[1,0.5]];portConstraint=eastwest;" parent="FyzprK_EUzZUyvUEk8gq-19" vertex="1">
                    <mxGeometry y="104" width="152" height="26" as="geometry"/>
                </mxCell>
                <mxCell id="FyzprK_EUzZUyvUEk8gq-21" value="fk_user_id int" style="text;strokeColor=none;fillColor=none;align=left;verticalAlign=top;spacingLeft=4;spacingRight=4;overflow=hidden;rotatable=0;points=[[0,0.5],[1,0.5]];portConstraint=eastwest;" parent="FyzprK_EUzZUyvUEk8gq-19" vertex="1">
                    <mxGeometry y="130" width="152" height="26" as="geometry"/>
                </mxCell>
                <mxCell id="FyzprK_EUzZUyvUEk8gq-25" value="answer" style="swimlane;fontStyle=0;childLayout=stackLayout;horizontal=1;startSize=26;fillColor=#a0522d;horizontalStack=0;resizeParent=1;resizeParentMax=0;resizeLast=0;collapsible=1;marginBottom=0;fontSize=20;strokeColor=#6D1F00;fontColor=#ffffff;" parent="YNhbEBSxachPlGZMgap4-1" vertex="1">
                    <mxGeometry x="280.25" y="404" width="149.75" height="156" as="geometry"/>
                </mxCell>
                <mxCell id="FyzprK_EUzZUyvUEk8gq-26" value="pk_answer_id int" style="text;strokeColor=none;fillColor=none;align=left;verticalAlign=top;spacingLeft=4;spacingRight=4;overflow=hidden;rotatable=0;points=[[0,0.5],[1,0.5]];portConstraint=eastwest;fontStyle=4" parent="FyzprK_EUzZUyvUEk8gq-25" vertex="1">
                    <mxGeometry y="26" width="149.75" height="26" as="geometry"/>
                </mxCell>
                <mxCell id="FyzprK_EUzZUyvUEk8gq-27" value="answer text" style="text;strokeColor=none;fillColor=none;align=left;verticalAlign=top;spacingLeft=4;spacingRight=4;overflow=hidden;rotatable=0;points=[[0,0.5],[1,0.5]];portConstraint=eastwest;" parent="FyzprK_EUzZUyvUEk8gq-25" vertex="1">
                    <mxGeometry y="52" width="149.75" height="26" as="geometry"/>
                </mxCell>
                <mxCell id="FyzprK_EUzZUyvUEk8gq-34" value="create_datetime datetime" style="text;strokeColor=none;fillColor=none;align=left;verticalAlign=top;spacingLeft=4;spacingRight=4;overflow=hidden;rotatable=0;points=[[0,0.5],[1,0.5]];portConstraint=eastwest;" parent="FyzprK_EUzZUyvUEk8gq-25" vertex="1">
                    <mxGeometry y="78" width="149.75" height="26" as="geometry"/>
                </mxCell>
                <mxCell id="FyzprK_EUzZUyvUEk8gq-28" value="fk_question_id int" style="text;strokeColor=none;fillColor=none;align=left;verticalAlign=top;spacingLeft=4;spacingRight=4;overflow=hidden;rotatable=0;points=[[0,0.5],[1,0.5]];portConstraint=eastwest;" parent="FyzprK_EUzZUyvUEk8gq-25" vertex="1">
                    <mxGeometry y="104" width="149.75" height="26" as="geometry"/>
                </mxCell>
                <mxCell id="FyzprK_EUzZUyvUEk8gq-29" value="fk_user_id int" style="text;strokeColor=none;fillColor=none;align=left;verticalAlign=top;spacingLeft=4;spacingRight=4;overflow=hidden;rotatable=0;points=[[0,0.5],[1,0.5]];portConstraint=eastwest;" parent="FyzprK_EUzZUyvUEk8gq-25" vertex="1">
                    <mxGeometry y="130" width="149.75" height="26" as="geometry"/>
                </mxCell>
                <mxCell id="FyzprK_EUzZUyvUEk8gq-31" style="rounded=0;orthogonalLoop=1;jettySize=auto;html=1;exitX=0;exitY=0.5;exitDx=0;exitDy=0;startArrow=ERzeroToMany;startFill=1;startSize=6;endArrow=ERmandOne;endFill=0;endSize=6;strokeWidth=1;fontSize=14;fontColor=#808080;entryX=0;entryY=0.5;entryDx=0;entryDy=0;edgeStyle=orthogonalEdgeStyle;" parent="YNhbEBSxachPlGZMgap4-1" source="FyzprK_EUzZUyvUEk8gq-21" target="YNhbEBSxachPlGZMgap4-3" edge="1">
                    <mxGeometry relative="1" as="geometry">
                        <mxPoint x="250" y="690" as="targetPoint"/>
                        <Array as="points">
                            <mxPoint x="30" y="625"/>
                            <mxPoint x="30" y="690"/>
                            <mxPoint x="210" y="690"/>
                            <mxPoint x="210" y="777"/>
                        </Array>
                    </mxGeometry>
                </mxCell>
                <mxCell id="FyzprK_EUzZUyvUEk8gq-32" style="rounded=0;orthogonalLoop=1;jettySize=auto;html=1;exitX=0;exitY=0.5;exitDx=0;exitDy=0;entryX=0;entryY=0.5;entryDx=0;entryDy=0;startArrow=ERzeroToMany;startFill=1;startSize=6;endArrow=ERmandOne;endFill=0;endSize=6;strokeWidth=1;fontSize=14;fontColor=#808080;edgeStyle=orthogonalEdgeStyle;" parent="YNhbEBSxachPlGZMgap4-1" source="FyzprK_EUzZUyvUEk8gq-24" target="cHjM6ibUncOLDaH94VuM-31" edge="1">
                    <mxGeometry relative="1" as="geometry">
                        <Array as="points">
                            <mxPoint x="30" y="599"/>
                            <mxPoint x="30" y="240"/>
                            <mxPoint x="260" y="240"/>
                            <mxPoint x="260" y="171"/>
                        </Array>
                    </mxGeometry>
                </mxCell>
                <mxCell id="FyzprK_EUzZUyvUEk8gq-33" style="rounded=0;orthogonalLoop=1;jettySize=auto;html=1;exitX=0;exitY=0.5;exitDx=0;exitDy=0;entryX=1;entryY=0.5;entryDx=0;entryDy=0;startArrow=ERzeroToMany;startFill=1;startSize=6;endArrow=ERmandOne;endFill=0;endSize=6;strokeWidth=1;fontSize=14;fontColor=#808080;edgeStyle=orthogonalEdgeStyle;" parent="YNhbEBSxachPlGZMgap4-1" source="FyzprK_EUzZUyvUEk8gq-28" target="FyzprK_EUzZUyvUEk8gq-20" edge="1">
                    <mxGeometry relative="1" as="geometry"/>
                </mxCell>
                <mxCell id="FyzprK_EUzZUyvUEk8gq-35" style="edgeStyle=orthogonalEdgeStyle;rounded=0;orthogonalLoop=1;jettySize=auto;html=1;exitX=0;exitY=0.5;exitDx=0;exitDy=0;entryX=0;entryY=0.5;entryDx=0;entryDy=0;startArrow=ERzeroToMany;startFill=1;startSize=6;endArrow=ERmandOne;endFill=0;endSize=6;strokeWidth=1;fontSize=14;fontColor=#808080;" parent="YNhbEBSxachPlGZMgap4-1" source="FyzprK_EUzZUyvUEk8gq-29" target="YNhbEBSxachPlGZMgap4-3" edge="1">
                    <mxGeometry relative="1" as="geometry">
                        <Array as="points">
                            <mxPoint x="220" y="547"/>
                            <mxPoint x="220" y="777"/>
                        </Array>
                    </mxGeometry>
                </mxCell>
                <mxCell id="FyzprK_EUzZUyvUEk8gq-37" style="edgeStyle=orthogonalEdgeStyle;rounded=0;orthogonalLoop=1;jettySize=auto;html=1;exitX=0;exitY=0.5;exitDx=0;exitDy=0;entryX=1;entryY=0.5;entryDx=0;entryDy=0;startArrow=ERzeroToMany;startFill=1;startSize=6;endArrow=ERmandOne;endFill=0;endSize=6;strokeWidth=1;fontSize=14;fontColor=#808080;" parent="YNhbEBSxachPlGZMgap4-1" source="W1Nx3ltpK3YNEK72oWIN-2" target="cHjM6ibUncOLDaH94VuM-31" edge="1">
                    <mxGeometry relative="1" as="geometry"/>
                </mxCell>
                <mxCell id="FyzprK_EUzZUyvUEk8gq-38" style="edgeStyle=orthogonalEdgeStyle;rounded=0;orthogonalLoop=1;jettySize=auto;html=1;exitX=0;exitY=0.5;exitDx=0;exitDy=0;entryX=1;entryY=0.5;entryDx=0;entryDy=0;startArrow=ERzeroToMany;startFill=1;startSize=6;endArrow=ERmandOne;endFill=0;endSize=6;strokeWidth=1;fontSize=14;fontColor=#808080;" parent="YNhbEBSxachPlGZMgap4-1" source="FyzprK_EUzZUyvUEk8gq-36" target="YNhbEBSxachPlGZMgap4-3" edge="1">
                    <mxGeometry relative="1" as="geometry">
                        <Array as="points">
                            <mxPoint x="430" y="625"/>
                            <mxPoint x="430" y="777"/>
                        </Array>
                    </mxGeometry>
                </mxCell>
                <mxCell id="RwFK8KoWZsRZvXu-dxoj-0" value="chat" style="swimlane;fontStyle=0;childLayout=stackLayout;horizontal=1;startSize=26;horizontalStack=0;resizeParent=1;resizeParentMax=0;resizeLast=0;collapsible=1;marginBottom=0;fontSize=20;strokeColor=#6D1F00;fontColor=#ffffff;fillColor=#A07758;" parent="YNhbEBSxachPlGZMgap4-1" vertex="1">
                    <mxGeometry x="465" y="956" width="165" height="104" as="geometry"/>
                </mxCell>
                <mxCell id="RwFK8KoWZsRZvXu-dxoj-1" value="pk_chat_id int" style="text;strokeColor=none;fillColor=none;align=left;verticalAlign=top;spacingLeft=4;spacingRight=4;overflow=hidden;rotatable=0;points=[[0,0.5],[1,0.5]];portConstraint=eastwest;fontStyle=4" parent="RwFK8KoWZsRZvXu-dxoj-0" vertex="1">
                    <mxGeometry y="26" width="165" height="26" as="geometry"/>
                </mxCell>
                <mxCell id="RwFK8KoWZsRZvXu-dxoj-5" value="status enum('open','closed')" style="text;strokeColor=none;fillColor=none;align=left;verticalAlign=top;spacingLeft=4;spacingRight=4;overflow=hidden;rotatable=0;points=[[0,0.5],[1,0.5]];portConstraint=eastwest;" parent="RwFK8KoWZsRZvXu-dxoj-0" vertex="1">
                    <mxGeometry y="52" width="165" height="26" as="geometry"/>
                </mxCell>
                <mxCell id="RwFK8KoWZsRZvXu-dxoj-4" value="fk_user_id int" style="text;strokeColor=none;fillColor=none;align=left;verticalAlign=top;spacingLeft=4;spacingRight=4;overflow=hidden;rotatable=0;points=[[0,0.5],[1,0.5]];portConstraint=eastwest;" parent="RwFK8KoWZsRZvXu-dxoj-0" vertex="1">
                    <mxGeometry y="78" width="165" height="26" as="geometry"/>
                </mxCell>
                <mxCell id="RwFK8KoWZsRZvXu-dxoj-6" value="chat_message" style="swimlane;fontStyle=0;childLayout=stackLayout;horizontal=1;startSize=26;horizontalStack=0;resizeParent=1;resizeParentMax=0;resizeLast=0;collapsible=1;marginBottom=0;fontSize=20;strokeColor=#6D1F00;fontColor=#ffffff;fillColor=#A07758;" parent="YNhbEBSxachPlGZMgap4-1" vertex="1">
                    <mxGeometry x="672" y="852" width="148" height="156" as="geometry"/>
                </mxCell>
                <mxCell id="RwFK8KoWZsRZvXu-dxoj-7" value="pk_message_id int" style="text;strokeColor=none;fillColor=none;align=left;verticalAlign=top;spacingLeft=4;spacingRight=4;overflow=hidden;rotatable=0;points=[[0,0.5],[1,0.5]];portConstraint=eastwest;fontStyle=4" parent="RwFK8KoWZsRZvXu-dxoj-6" vertex="1">
                    <mxGeometry y="26" width="148" height="26" as="geometry"/>
                </mxCell>
                <mxCell id="RwFK8KoWZsRZvXu-dxoj-10" value="fk_user_id int" style="text;strokeColor=none;fillColor=none;align=left;verticalAlign=top;spacingLeft=4;spacingRight=4;overflow=hidden;rotatable=0;points=[[0,0.5],[1,0.5]];portConstraint=eastwest;" parent="RwFK8KoWZsRZvXu-dxoj-6" vertex="1">
                    <mxGeometry y="52" width="148" height="26" as="geometry"/>
                </mxCell>
                <mxCell id="RwFK8KoWZsRZvXu-dxoj-8" value="message text" style="text;strokeColor=none;fillColor=none;align=left;verticalAlign=top;spacingLeft=4;spacingRight=4;overflow=hidden;rotatable=0;points=[[0,0.5],[1,0.5]];portConstraint=eastwest;" parent="RwFK8KoWZsRZvXu-dxoj-6" vertex="1">
                    <mxGeometry y="78" width="148" height="26" as="geometry"/>
                </mxCell>
                <mxCell id="RwFK8KoWZsRZvXu-dxoj-11" value="create_datetime datetime" style="text;strokeColor=none;fillColor=none;align=left;verticalAlign=top;spacingLeft=4;spacingRight=4;overflow=hidden;rotatable=0;points=[[0,0.5],[1,0.5]];portConstraint=eastwest;" parent="RwFK8KoWZsRZvXu-dxoj-6" vertex="1">
                    <mxGeometry y="104" width="148" height="26" as="geometry"/>
                </mxCell>
                <mxCell id="RwFK8KoWZsRZvXu-dxoj-9" value="fk_chat_id int" style="text;strokeColor=none;fillColor=none;align=left;verticalAlign=top;spacingLeft=4;spacingRight=4;overflow=hidden;rotatable=0;points=[[0,0.5],[1,0.5]];portConstraint=eastwest;" parent="RwFK8KoWZsRZvXu-dxoj-6" vertex="1">
                    <mxGeometry y="130" width="148" height="26" as="geometry"/>
                </mxCell>
                <mxCell id="M5oOSELtLF5YLRHOpe-a-0" style="edgeStyle=orthogonalEdgeStyle;rounded=0;orthogonalLoop=1;jettySize=auto;html=1;exitX=0;exitY=0.5;exitDx=0;exitDy=0;entryX=1;entryY=0.5;entryDx=0;entryDy=0;startArrow=ERoneToMany;startFill=0;startSize=6;endArrow=ERmandOne;endFill=0;endSize=6;strokeWidth=1;fontSize=14;fontColor=#808080;" parent="YNhbEBSxachPlGZMgap4-1" source="RwFK8KoWZsRZvXu-dxoj-4" target="YNhbEBSxachPlGZMgap4-3" edge="1">
                    <mxGeometry relative="1" as="geometry">
                        <Array as="points">
                            <mxPoint x="440" y="1047"/>
                            <mxPoint x="440" y="777"/>
                        </Array>
                    </mxGeometry>
                </mxCell>
                <mxCell id="M5oOSELtLF5YLRHOpe-a-1" style="edgeStyle=orthogonalEdgeStyle;rounded=0;orthogonalLoop=1;jettySize=auto;html=1;exitX=0;exitY=0.5;exitDx=0;exitDy=0;entryX=1;entryY=0.5;entryDx=0;entryDy=0;startArrow=ERoneToMany;startFill=0;startSize=6;endArrow=ERmandOne;endFill=0;endSize=6;strokeWidth=1;fontSize=14;fontColor=#808080;" parent="YNhbEBSxachPlGZMgap4-1" source="RwFK8KoWZsRZvXu-dxoj-9" target="RwFK8KoWZsRZvXu-dxoj-1" edge="1">
                    <mxGeometry relative="1" as="geometry"/>
                </mxCell>
                <mxCell id="M5oOSELtLF5YLRHOpe-a-2" style="edgeStyle=orthogonalEdgeStyle;rounded=0;orthogonalLoop=1;jettySize=auto;html=1;exitX=0;exitY=0.5;exitDx=0;exitDy=0;startArrow=ERoneToMany;startFill=0;startSize=6;endArrow=ERmandOne;endFill=0;endSize=6;strokeWidth=1;fontSize=14;fontColor=#808080;entryX=1;entryY=0.5;entryDx=0;entryDy=0;" parent="YNhbEBSxachPlGZMgap4-1" source="RwFK8KoWZsRZvXu-dxoj-10" target="YNhbEBSxachPlGZMgap4-3" edge="1">
                    <mxGeometry relative="1" as="geometry">
                        <mxPoint x="420" y="790" as="targetPoint"/>
                        <Array as="points">
                            <mxPoint x="460" y="917"/>
                            <mxPoint x="460" y="777"/>
                        </Array>
                    </mxGeometry>
                </mxCell>
            </root>
        </mxGraphModel>
    </diagram>
</mxfile>